<svg width="1078" height="454" viewBox="0 0 1078 454" fill="none" xmlns="http://www.w3.org/2000/svg">
<path fill-rule="evenodd" clip-rule="evenodd" d="M729.552 154.255L729.833 155.936C733.482 156.496 745.919 154.413 750.419 153.363C752.557 152.865 754.902 152.661 757.151 152.244C765.828 150.634 776.818 149.973 786.17 150.916C795.146 151.82 803.773 153.963 811.233 156.947C819.375 160.203 825.679 161.18 834.335 161.056C834.919 161.048 835.668 161.073 836.228 160.976C836.727 160.889 836.97 160.681 837.569 160.651C837.824 161.775 830.709 170.51 837.581 173.761C842.519 176.097 850.552 169.965 851.621 169.753C851.28 172.062 846.377 176.386 848.456 179.794C850.612 183.324 856.194 177.182 857.542 177.085C857.92 177.058 857.794 177.077 857.986 177.161C858.66 178.984 857.408 182.125 858.117 184.486C858.669 186.323 860.291 187.96 862.768 187.644C864.773 187.387 866.738 185.829 867.83 184.785C868.918 183.746 869.77 183.044 870.753 181.816C871.146 181.325 871.082 181.077 871.793 180.997C871.632 182.99 870.951 185.291 870.844 187.427C870.726 189.773 870.626 192.689 871.599 194.362C872.543 195.985 874.613 196.872 876.846 195.766C879.32 194.541 880.023 192.285 880.681 191.969C881.185 193.505 881.021 195.116 882.281 197.64C885.53 204.15 892.988 203.452 894.603 199.162C894.719 198.855 894.721 198.696 894.832 198.418C894.85 198.374 894.869 198.322 894.889 198.28L895.227 197.768C896.055 198.298 896.651 199.994 897.119 200.671C897.943 201.865 898.519 202.554 899.34 203.358C900.797 204.784 904.442 206.683 905.854 203.957C908.459 198.928 896.899 181.152 894.344 176.925C892.983 174.673 887.732 166.588 888.246 163.524C888.478 162.139 890.94 158.033 892.973 159.048C900.234 162.675 904.784 165.606 911.459 170.019C921.669 176.769 927.587 179.071 939.139 181.647C951.463 184.395 967.553 183.252 980.191 181.516L1001.82 178.537C1004.73 178.067 1007.73 177.961 1010.63 177.482C1019.97 175.936 1038.13 175.454 1047.54 176.969C1049.01 177.206 1050.37 177.378 1051.79 177.586C1053.05 177.772 1054.5 178.169 1055.91 178.395C1058.4 178.793 1061.33 179.695 1063.71 180.407C1067.77 181.622 1070.75 182.764 1074.47 184.389C1075.31 184.758 1077.2 185.757 1077.91 185.845V184.328C1076.79 184.091 1074.28 182.765 1073.07 182.244C1060.32 176.761 1045.54 174.428 1031.35 174.599C1028.32 174.636 1020.91 174.98 1018.15 175.336C1016.02 175.61 1013.69 175.719 1011.51 175.876C1009.72 176.005 1007.28 176.548 1005.37 176.716C1001.07 177.092 996.935 177.97 992.843 178.445C988.877 178.905 984.295 179.885 980.483 180.181C978.494 180.337 976.254 180.576 974.356 180.87L967.909 181.481C963.22 181.642 959.038 181.994 954.152 181.889C945.919 181.712 936.875 180.237 929.977 177.81C915.825 172.831 910.475 166.63 898.285 160.209C897.074 159.571 895.45 158.938 894.283 158.141C893.488 157.596 894.064 158.144 893.744 157.578C894.146 157.092 894.815 156.875 895.389 156.56C895.932 156.26 896.479 155.971 897.056 155.692C898.272 155.105 899.539 154.536 900.658 153.992L907.799 150.532C910.207 151.113 909.689 160.03 916.19 152.612C918.011 150.534 920.416 146.853 921.686 144.163C921.966 143.569 921.955 143.105 922.531 142.956C922.845 143.619 923.066 146.647 923.247 147.613C924.092 152.109 924.7 157.2 927.149 160.82C929.395 164.14 933.706 154.955 934.443 152.994L935.73 148.587C936.407 148.92 936.383 150.199 936.63 150.952C936.913 151.815 937.279 152.628 937.715 153.408C938.424 154.678 939.733 156.193 941.78 156.215C944.555 156.244 948.486 154.153 949.507 151.014L949.835 150.174C950.535 150.556 950.686 150.99 951.264 151.433C952.914 152.7 954.811 153.817 957.078 153.49C958.904 153.227 959.556 152.703 960.517 151.563C961.657 150.211 960.925 149.315 960.748 147.262C962.548 147.7 968.881 154.365 974.32 151.228C976.06 150.224 976.369 149.58 976.565 147.179C976.98 147.244 981.813 149.145 984.085 149.603C987.189 150.229 991.018 149.517 992.083 147.56C992.309 145.907 981.052 139.049 980.546 138.131C980.946 137.946 983.594 139.087 984.387 139.348C988.273 140.628 995.027 142.446 998.876 141.194C1000.17 140.773 1001.63 140.024 1002.12 138.929C1002.68 137.666 1000.59 136.482 999.847 135.853C998.722 134.895 998.049 134.371 996.744 133.449C995.51 132.576 994.226 131.988 993.288 131.257C993.72 130.961 994.103 131.213 994.82 131.445C999.21 132.866 1003.64 133.606 1008.37 133.207C1010.99 132.986 1016.05 130.039 1014.56 127.025C1013.8 125.482 1013.12 125.772 1012.21 124.774C1012.49 124.564 1012.22 124.666 1012.71 124.551C1012.97 124.491 1013.01 124.499 1013.28 124.484L1016.45 124.133C1022.85 123.147 1029.3 121.838 1034.19 117.589C1035.02 116.871 1038.21 113.763 1038.16 111.859C1033.75 108.515 1027.34 110.683 1021.37 109.976C1016.78 109.43 1008.5 108.935 1004.37 107.782L996.192 106.285C988.964 105.152 967.126 98.4279 958.235 96.3194C951.877 94.8116 948.83 93.6472 941.634 94.9107C933.149 96.4 924.068 98.333 917.873 104.799C916.996 105.715 915.263 105.692 913.87 105.721C913.826 104.781 915.279 102.899 915.808 101.943C918.234 97.5644 919.635 93.6195 919.626 88.2387C919.614 80.5755 916.537 77.6074 912.144 72.5008C906.698 66.1703 900.439 61.152 894.925 54.9511C894.116 54.042 893.205 52.6132 892.403 51.5836C889.869 48.33 873.188 29.528 870.586 27.0411C868.561 25.1066 857.818 12.9696 856.846 11.7108C855.129 9.48795 853.529 7.33592 851.751 5.21773C850.844 4.13841 847.023 -0.143753 845.138 0.0032959C843.621 1.19182 843.71 4.05138 844.419 6.06491C845.933 10.3659 852.437 18.3237 853.048 20.5686C852.066 20.3122 851.074 18.9792 850.242 18.3165C848.063 16.5812 843.43 12.8722 840.484 12.8901C835.98 17.7262 843.035 28.7767 845.335 32.0551C848.439 36.4795 858.705 44.3491 859.087 45.2165C858.178 45.0051 855.681 43.117 854.881 42.5542C853.748 41.7574 851.935 40.6576 850.503 39.8581C849.085 39.0668 841.658 35.35 840.366 36.3819C839.368 37.6011 841.989 42.2456 842.597 43.243C846.241 49.2225 857.275 56.8123 857.675 57.7569C856.718 57.6391 854.245 56.1769 853.057 55.741C850.2 54.6927 844.851 53.0487 843.722 57.3453C843.209 59.2989 844.191 61.3457 845.032 62.6123C847.564 66.4255 851.736 70.0974 855.235 72.8381C856.023 73.4556 858.662 75.3592 859.015 76.2019C854.027 76.0067 849.909 71.8724 845.096 75.7713C845.044 78.6832 849.988 82.0303 852.293 83.2525C854.523 84.4352 861.308 87.0983 861.731 87.3436C862.203 87.6175 862.06 87.3909 862.27 87.8461C860.762 89.5261 853.175 89.6821 851.364 94.676C849.045 101.07 856.083 102.263 861.146 101.532C861.04 102.589 859.875 103.288 859.361 103.837C857.643 105.674 854.711 108.654 854.715 111.614C854.717 113.893 856.605 115.735 858.876 115.818C861.65 115.92 864.02 114.527 866.02 114.465C865.558 117.339 862.819 121.192 865.387 124.366C867.579 127.075 872.609 125.729 876.082 125.815C875.733 127.389 874.206 128.288 874.298 129.831C875.254 130.481 875.959 130.172 876.051 131.649C875.291 132.77 869.465 135.651 867.594 136.262C862.35 137.976 861.359 136.738 856.65 135.905L845.508 133.841C843.138 133.223 836.323 132.816 833.542 132.608C817.529 131.409 811.287 138.077 813.103 140.299C815.748 143.538 820.648 144.74 824.577 145.348C825.53 145.496 829.446 145.886 830.238 146.381C829.835 147.02 827.97 147.641 827.155 148.032C818.207 152.328 820.851 159.392 835.402 158.066C836.543 157.962 838.976 157.598 839.797 157.626C839.713 158.807 838.909 159.219 837.683 159.326C833.504 159.69 830.623 159.945 826.38 159.395C817.339 158.222 815.017 156.54 807.525 154.115C801.067 152.026 794.746 150.456 787.779 149.705C786.554 149.573 785.785 149.284 784.445 149.258C783.078 149.233 781.694 149.176 780.437 149.078C776.748 148.79 772.512 149.019 768.836 149.301C764.228 149.653 755.698 150.959 751.107 151.801C744.034 153.098 736.939 154.224 729.552 154.255ZM841.013 14.582C838.061 19.2858 845.924 31.1335 849.315 34.5624C853.303 38.595 859.722 43.0634 862.763 46.8473C863.401 47.641 864.289 48.199 863.908 49.2625C862.758 49.6215 859.44 47.3092 858.458 46.6325C856.775 45.4713 855.155 44.4245 853.37 43.2728C851.4 42.0018 844.578 37.7905 841.789 37.9341C842.36 43.7634 852.592 51.7118 856.98 55.185C857.948 55.9514 863.063 59.7294 862.03 60.7388C860.629 62.1086 849.073 53.3635 845.713 56.5998C844.141 58.1144 845.521 60.9595 846.495 62.325C850.943 68.5621 861.556 75.3987 862.02 77.0424C859.711 80.082 851.707 73.7476 846.787 76.2569C846.69 78.6893 852.851 81.9652 854.795 82.8941C856.935 83.9164 864.278 86.6704 864.923 87.4529C864.529 90.7465 850.85 90.4568 852.505 97.8149C852.782 99.0447 853.812 99.4897 855.026 99.9231C858.335 101.104 865.956 98.4411 863.346 101.731C862.993 102.176 862.751 102.493 862.342 102.89C860.548 104.628 857.293 107.874 856.472 110.212C855.417 113.218 857.357 114.704 860.458 114.384C863.243 114.097 865.544 112.507 867.741 112.783C867.979 114.156 866.778 116.56 866.366 117.905C863.106 128.549 874.658 123.016 878.031 124.686C878.285 125.863 876.517 127.778 876.105 128.899C876.609 129.727 878.185 130.935 877.422 132.484C876.852 133.64 869.008 137.38 866.942 137.958C863.096 139.034 861.413 138.381 858.044 137.644C855.174 137.016 852.152 136.372 849.171 135.87C841.384 134.56 828.502 132.765 820.593 134.974C817.934 135.717 815.116 137.188 814.254 139.31C815.672 141.901 822.023 143.598 825.497 144.057C826.526 144.193 826.973 144.456 828.06 144.539C829.289 144.632 832.665 145.035 833.452 145.595C833.538 147.216 829.63 148.325 827.308 149.568C825.335 150.624 821.976 152.506 824.198 154.946C827.717 158.81 841.042 155.408 842.039 156.346C842.161 156.546 842.181 156.422 842.205 156.82C842.266 157.854 841.86 157.235 841.449 158.51C846.448 158.145 853.513 153.845 857.668 151.054C859.364 149.916 860.532 148.739 861.962 147.491C870.69 139.873 869.315 136.304 880.224 134.478C889.456 132.933 893.768 129.458 900.551 123.618C905.255 119.57 909.71 114.069 913.656 109.22C914.147 108.616 915.216 107.778 915.24 106.927C911.01 106.973 911.831 109.046 909.195 111.443C908.291 112.265 905.639 115.335 903.976 116.826C900.237 120.179 895.891 123.291 891.097 125.346C889.588 125.992 887.532 126.635 885.66 127.01C884.461 127.251 880.108 127.662 879.256 126.785C878.675 125.604 882.108 121.743 882.79 120.98C885.946 117.451 892.681 112.942 897.251 111.506C901.819 110.072 903.401 109.052 907.721 107.412C912.003 105.786 910.986 107.338 913.319 103.388C916.576 97.8705 918.234 94.6058 918.234 87.4529C918.234 81.6465 915.301 78.0401 911.807 74.2118C908.454 70.5381 905.406 67.2963 902.077 64.1026C898.919 61.0739 895.141 57.7454 892.419 53.9178C890.984 51.9002 889.478 50.4034 888.009 48.5124L881.023 40.57C880.256 39.6632 879.442 38.9046 878.675 38.0048C877.077 36.1304 875.426 34.5802 873.901 32.7611C872.321 30.8771 870.852 29.421 869.212 27.6291C867.626 25.8953 866.084 24.1393 864.436 22.3874C861.208 18.9584 858.255 15.6841 855.165 11.8204C853.749 10.0493 847.642 1.79106 845.64 1.72475C844.332 4.28516 847.195 8.84259 848.262 10.4696C850.339 13.634 858.294 26.0555 860.455 28.7259L864.439 33.8245C864.997 34.8839 864.151 35.5087 863.406 34.836C862.783 34.2733 858.475 28.4203 856.64 26.4495L852.018 21.8407C850.055 19.9088 843.617 14.3379 841.013 14.582ZM919.172 105.743C924.557 107.213 927.722 110.387 929.313 116.016C930.158 119.004 929.358 122.409 927.773 124.123C925.184 126.925 923.351 121.719 921.212 121.877C921.317 122.794 923.454 123.741 924.146 125.698C924.601 126.985 924.828 130.235 924.103 131.435C922.742 131.653 922.22 130.483 920.959 130.213L920.478 131.347C920.271 131.946 920.233 132.058 919.95 132.619C919.491 133.531 919.098 133.891 918.507 134.697C914.78 139.792 914.067 141.565 908.783 146.189C905.597 148.977 896.82 154.514 892.083 155.802C891.232 156.033 891.286 155.806 890.879 156.399C891.764 157.386 892.676 156.465 895 155.175C897.298 153.901 900.821 152.375 903.463 151.069C904.235 150.687 904.839 150.371 905.512 150.001C906.083 149.688 906.896 149.066 907.602 148.838C910.622 149.955 910.406 152.735 911.924 154.072C914.959 153.794 920.063 144.398 921.674 141.189C922.088 140.364 922.157 139.558 923.252 139.594C923.839 140.4 924.864 148.688 925.125 150.501C925.406 152.455 926.944 159.029 928.424 159.927C931.451 158.789 934.498 148.946 935.149 145C935.739 141.424 934.441 139.04 936.41 139.203C937.22 140.162 936.719 144.294 937.314 147.945C937.722 150.441 938.855 153.585 940.54 154.483C942.537 155.547 946.475 153.234 947.359 152.157C949.88 149.085 946.232 145.482 948.263 144.883C949.072 144.95 949.287 147.435 951.467 149.66C952.559 150.775 954.688 152.52 957.273 152.044C960.318 151.483 959.607 149.229 959.178 146.617C958.768 144.114 955.193 143.381 956.277 141.667C957.301 141.206 959.335 143.817 960 144.467C962.691 147.098 970.195 152.85 974.009 149.734C977.557 146.836 972.458 145.187 968.95 142.984L964.779 140.078C963.953 139.439 963.605 139.065 962.893 138.431C962.473 138.057 961.117 137.237 961.919 136.469C962.495 135.915 964.436 137.293 965.198 137.701C968.075 139.243 972.521 141.891 974.561 144.048C975.721 145.275 975.402 145.131 977.645 146.069C979.963 147.037 983.163 148.207 985.775 148.408C987.055 148.507 989.483 148.303 990.076 147.363C989.529 146.001 980.444 139.764 978.445 138.595C974.832 136.484 972.362 134.942 968.475 133.257C967.493 132.83 965.454 132.295 965.008 131.453L965.395 130.72C966.313 130.645 979.139 136.084 981.985 137.043C985.556 138.247 998.1 142.589 1000.55 138.524C999.253 135.564 987.78 129.804 983.022 128.318C981.851 127.953 980.713 127.67 979.489 127.34C978.055 126.953 976.264 127.382 976.294 125.685C980.439 124.183 996.13 132.256 1007.4 131.888C1011.07 131.768 1016.5 128.016 1010.96 125.907C1005.54 123.839 1003.77 125.274 998.023 124.734C996.604 124.6 994.912 124.643 993.628 124.404C992.109 124.121 990.365 124.407 990.479 122.785C992.321 121.947 1001.59 122.573 1004.06 122.947C1011.07 124.013 1022.29 122.514 1028.75 119.403C1031.19 118.227 1036.08 114.862 1036.43 112.419C1031.75 110.372 1025.29 112.011 1019.7 111.241C1016.98 110.868 1014.24 110.764 1011.62 110.303C1008.99 109.841 1006.38 109.596 1003.73 109.131C1000.5 108.566 991.773 106.896 989.003 106.028L960.637 98.4139C955.357 97.2741 951.584 95.5406 945.312 95.7789C940.629 95.9566 934.901 97.589 930.405 98.8395C926.398 99.9539 923.453 102.079 920.304 104.464C919.74 104.891 919.346 105.045 919.172 105.743ZM854.37 166.678C855.314 167.512 854.894 167.781 853.7 169.476C852.601 171.038 847.91 178.048 849.894 179.325C852.603 179.893 856.147 174.835 858.846 175.314C860.151 177.419 859.14 180.499 859.297 183.106C859.47 185.983 861.711 187.013 864.194 185.689C867.034 184.175 869.876 180.796 871.924 178.271C872.411 177.671 872.458 177.42 873.322 177.708C873.347 177.76 873.374 177.782 873.381 177.872C873.388 177.963 873.425 177.994 873.434 178.04C873.639 179.147 873.33 180.841 873.107 181.878C872.815 183.234 872.598 184.417 872.483 185.862C872.301 188.166 871.48 192.026 873.014 193.927C875.616 197.151 879.329 191.89 880.374 189.081C880.764 188.032 880.887 186.13 881.477 185.476C883.22 185.548 882.116 187.439 882.1 189.199C881.957 205.536 896.072 202.959 893.676 193.913L892.695 190.908C892.637 190.605 892.608 190.736 892.656 190.405C892.765 189.664 892.591 190.164 892.935 189.825C894.27 188.732 894.823 193.545 896.694 197.15C897.966 199.601 899.886 202.626 902.082 203.567C909.261 206.643 900.173 189.542 899.696 188.656C896.257 182.274 888.726 171.556 887.159 166.027C885.665 160.755 890.172 159.066 890.243 157.774L888.567 157.192C884.343 160.933 886.194 162.477 885.099 165.337C884.186 167.718 881.74 169.949 878.676 170.481C876.998 170.773 875.271 169.769 875.624 168.048C875.765 167.357 876.408 166.819 876.824 166.282C877.818 164.997 879.594 161.714 879.303 159.968C879.094 158.717 876.978 157.83 875.781 157.572C873.972 159.48 875.343 164.225 873.651 166.211C870.909 166.363 868.697 160.255 868.027 158.251C867.577 156.906 866.768 154.303 866.902 152.661C867.086 150.412 868.73 149.506 870.804 150.555C875.472 152.913 880.35 152.946 886.788 154.987C889.438 155.828 889.59 155.137 892.146 154.307C900.642 151.55 910.568 144.123 915.361 136.655C916.738 134.508 918.611 132.891 919.327 130.408C919.57 129.565 919.354 128.08 919.793 127.328C921.462 126.592 920.289 129.069 922.992 129.333C923.477 123.023 919.405 124.575 919.615 121.843C919.74 120.215 921.928 120.179 923.132 121.023C924.041 121.661 925.068 123.212 926.263 123.447C927.741 122.599 928.381 120.213 928.248 118.087C928.139 116.357 927.182 113.897 926.476 112.588C924.966 109.79 921.428 107.328 917.621 106.943C912.305 111.533 905.254 124.809 890.168 132.887C883.862 136.263 878.618 135.204 873.637 137.955C871.591 139.085 869.645 141.619 868.185 143.304C865.061 146.911 861.122 150.353 856.826 153.35C852.376 156.453 847.631 158.454 842.039 159.957C839.571 160.62 840.086 159.847 838.767 162.008C837.562 163.978 835.594 167.376 836.063 169.943C836.312 171.309 837.535 172.448 838.869 172.729C844.356 173.883 852.338 166.843 854.37 166.678ZM881.187 125.817C888.936 125.987 895.712 122.082 901.304 117.298L907.114 111.714C907.856 110.922 909.384 109.423 909.686 108.338C908.355 108.413 902.73 111 901.349 111.635C898.692 112.856 895.721 113.252 893.174 114.858C890.575 116.497 888.478 117.613 886.394 119.478C885.285 120.469 881.347 124.111 881.187 125.817ZM872.834 164.156C872.998 163.867 872.879 164.302 873.01 163.651C873.297 162.232 872.87 161.531 873.929 158.101C874.333 156.791 873.859 154.594 878.665 157.239C884.218 160.295 877.149 167.27 877.11 168.811C880.125 169.666 883.296 166.79 883.837 164.617C884.211 163.118 884.025 161.367 884.642 159.977C885.72 157.546 886.798 157.527 886.756 156.399C885.99 156.029 883.4 155.409 882.31 155.151C879.614 154.512 875.118 153.917 872.936 153.114C871.955 152.753 869.993 151.414 868.786 151.572C867.333 154.261 870.121 160.163 871.653 162.872C872.415 164.22 872.308 163.963 872.834 164.156Z" fill="#2A335C"/>
<path fill-rule="evenodd" clip-rule="evenodd" d="M0 433.48V431.689C0.719158 431.932 3.68326 434.151 4.63318 434.749C9.58036 437.858 14.5176 440.456 20.3833 442.414C33.9697 446.95 47.1385 446.45 60.5095 441.25C67.8824 438.383 73.9372 433.982 79.6451 429.199C83.2313 426.194 86.6983 424.654 86.7112 420.66C85.7561 420.777 79.3693 424.177 77.6698 424.848C75.3473 425.764 68.0291 428.369 69.1669 423.274C70.0078 419.51 76.2836 413.75 79.802 411.393C80.5467 410.894 81.4734 410.604 81.774 409.846C74.7368 407.744 84.6123 400.832 89.4968 399.011C90.1806 398.756 91.4638 398.452 92.0157 398.129C91.6548 397.535 91.3824 397.59 90.676 397.099C89.3605 396.185 87.4112 394.981 86.5747 393.589C84.6038 390.311 91.257 391.116 93.2797 391.235C111.413 392.296 97.7684 385.766 101.284 383.59C103.255 382.7 107.931 385.522 109.826 385.758C110.635 383.898 110.938 382.884 112.231 381.48C114.593 378.915 121.175 378.031 122.439 380.122C124.302 383.204 119.403 392.769 118.027 395.386C116.903 397.524 115.854 399.851 114.386 401.848C113.574 402.952 113.71 403.455 114.962 403.924C115.624 403.614 118.203 401.309 118.864 400.623C119.995 399.448 121.505 398.421 122.713 397.267C124.606 395.457 128.463 392.327 131.149 391.072C135.399 389.087 139.311 390.903 142.004 393.095C143.847 394.597 145.605 396.819 146.907 398.957L148.52 401.325C148.369 400.177 148.041 399.43 148.318 398.43C149.532 398.139 150.107 399.049 150.862 399.87C152.755 401.927 154.464 405.018 157.745 405.609C160.181 406.049 163.227 404.8 163.643 403.117C164.287 400.508 161.354 397.632 162.411 396.939C163.462 396.476 164.415 398.256 165.098 398.916C166.049 399.833 166.754 400.619 167.757 401.457C169.549 402.955 171.846 404.741 175.44 404.347C181.763 403.653 180.334 396.578 176.656 393.703C175.848 393.071 175.847 392.895 176.54 392.211C177.568 392.187 179.645 394.607 183.744 396.141C187.268 397.459 194.42 398.421 196.548 394.307C198.664 390.217 186.919 387.964 189.057 386.126C189.812 385.768 190.523 386.433 191.097 386.754C193.325 387.998 195.744 388.556 198.445 388.954C211.862 390.928 220.811 382.233 208.433 379.413C205.829 378.82 203.603 379.528 203.111 378.233C203.818 376.846 207.119 377.746 208.547 377.955C212.374 378.516 216.921 379.287 220.682 378.28C222.263 377.857 224.235 377.152 224.751 375.721C224.17 374.283 222.157 373.386 220.538 372.717C219.256 372.187 216.405 371.181 215.001 370.954C214.083 370.805 212.583 370.842 211.531 370.744C209.658 370.57 203.003 370.452 202.142 368.96C202.79 367.147 208.561 368.202 210.213 368.479C211.662 368.721 212.943 368.964 214.28 369.307C217.893 370.234 234.915 370.373 236.321 367.608C235.817 366.621 232.313 366.248 231.05 365.975C229.125 365.56 227.258 365.215 225.28 364.803C221.363 363.987 217.412 363.345 213.417 362.58C197.036 359.445 180.126 357.925 163.42 356.287C155.724 355.533 145.543 358.357 139.836 360.749C135.611 362.519 138.744 363.42 132.848 367.345C129.628 369.489 128.101 371.098 125.195 373.526C123.041 375.326 118.906 378.518 115.651 375.461C113.522 373.463 113.162 368.284 112.921 364.719C112.447 357.708 113.739 348.564 118.61 343.399C123.097 338.641 126.471 343.342 128.77 343.105C130.261 342.952 132.568 341.883 134.026 341.406C135.231 341.011 137.055 340.342 138.418 340.641C139.531 340.885 138.647 340.88 139.523 341.348C147.101 337.321 150.271 336.228 159.017 333.693C160.352 333.306 178.436 328.884 180.596 328.939C183.802 329.02 180.005 334.625 178.014 336.412C172.649 341.225 163.357 346.372 155.39 346.34C154.366 346.335 153.855 346.215 154.247 347.404C155.689 351.78 168.048 344.527 170.746 343.139C171.462 342.77 173.287 341.529 174.018 342.084C174.618 342.72 174.184 342.993 173.952 344L173.765 345.964C173.997 347.236 173.488 345.217 173.865 346.294C174.441 347.939 179.113 344.466 179.469 344.146C180.231 343.463 180.773 342.887 181.508 342.188C182.19 341.539 182.966 340.293 183.897 340.735C184.27 341.255 184.345 343.808 184.649 344.62C188.9 343.529 191.104 334.078 194.874 329.2C195.552 328.322 196.153 327.746 196.892 326.844C198.46 324.931 202.055 321.336 200.9 318.665C199 314.272 185.43 323.977 183.388 325.208C176.561 329.32 176.66 327.621 175.51 320.406C175.182 318.346 175.388 318.85 174.517 317.277C173.934 316.225 170.848 313.805 169.653 313.335C164.594 311.347 163.407 312.163 158.351 311.359C156.252 311.024 144.509 308.848 148.613 305.221C149.377 304.546 150.446 304.117 151.529 303.698C152.335 303.386 154.198 303.197 154.738 302.508C153.962 302.28 152.743 302.306 151.873 302.169C150.944 302.024 149.983 301.877 149.067 301.689C140.189 299.867 141.11 295.028 145.088 293.811L146.361 293.236C144.396 292.338 137.089 293.305 134.778 290.532C133.19 288.629 135.137 287.162 136.491 286.346C138.263 285.278 140.244 285.124 141.942 284.325C141.442 283.999 133.398 282.941 132.033 282.666C128.191 281.892 121.917 280.84 119.281 278.192C117.864 276.769 119.02 275.337 120.294 274.668C123.232 273.126 129.73 273.564 130.564 272.867C127.397 272.34 121.636 270.099 118.921 268.855C117.357 268.139 115.188 266.887 114.28 265.862C112.605 263.974 113.081 261.993 115.219 261.026C120.737 258.529 137.018 262.522 142.244 264.034C146.989 265.408 148.73 266.277 152.169 269.615C157.219 274.514 160.644 282.038 165.505 287.079C167.129 288.763 171.756 293.106 174.197 294.009C175.124 293.605 176.796 292.296 178.551 291.527C179.352 291.175 179.648 291.251 180.255 290.725L178.842 290.038C178.28 289.822 177.839 289.578 177.323 289.352C176.352 288.928 175.421 288.509 174.439 287.981C172.649 287.019 170.81 285.629 169.888 284.127C168.725 282.235 168.945 279.554 170.294 277.991C172.371 275.583 175.593 277.228 177.296 276.623C177.271 276.584 177.219 276.483 177.204 276.514L175.086 274.83C172.099 272.29 166.803 265.767 169.4 261.891C170.861 259.709 173.148 260.492 175.6 260.917C175.209 260.006 173.415 258.331 172.636 257.228C171.847 256.111 170.718 254.529 170.134 252.999C169.297 250.808 169.837 249.059 171.587 248.295C173.651 247.394 175.756 248.109 177.828 248.271C177.572 247.5 176.773 246.396 176.37 245.613C174.889 242.736 169.863 233.407 172.857 230.936C174.754 229.371 177.39 232.087 178.637 232.611C177.778 229.02 175.831 225.899 175.394 221.977C175.161 219.887 175.253 217.591 177.504 217.49C179.825 217.387 181.082 219.219 182.489 219.606L180.251 209.907C179.512 206.66 178.981 202.649 179.118 199.156C179.433 191.104 184.759 193.898 188.073 197.952C188.501 198.477 190.32 201.242 190.65 201.438C190.907 199.203 189.996 196.994 190.863 194.481C193.065 188.098 201.684 200.214 203.16 202.191C209.232 210.326 216.22 222.392 220.828 231.439C222.557 234.832 224.506 238.263 226.083 241.771C232.176 255.327 236.654 262.961 230.19 277.848C226.04 287.404 222.12 291.106 224.601 301.499C225.426 304.955 227.149 310.817 230.408 311.522C233.365 312.161 239.184 308.248 241.593 306.856C244.989 304.894 248.13 302.674 253.458 302.696C257.488 302.712 263.071 305.492 263.531 308.524C263.714 309.728 263.37 311.09 263.719 312.21C264.28 314.009 268.699 316.811 267.585 319.941C266.13 320.215 264.508 318.578 262.74 318.143C260.674 317.634 259.701 319.289 258.513 320.379C254.23 324.307 243.744 336.014 241.796 337.576C241.152 338.091 238.429 340.108 238.179 340.791C243.976 342.588 249.699 344.606 256.492 345.46C279.883 348.4 297.844 336.816 312.494 321.832L315.321 319.075C322.738 311.787 327.744 306.317 336.59 300.549C338.318 299.423 342.436 297.689 344.537 296.964C349.683 295.187 359.714 294.929 364.853 297.149L364.917 298.498C360.541 298.175 358.7 296.349 351.269 297.058C346.302 297.532 343.117 298.899 339.524 300.598C336.689 301.939 337.168 301.896 334.875 303.382C331.036 305.868 327.753 308.934 324.505 312.024L320.78 315.679C316.457 320.168 312.022 324.592 307.335 328.789C295.292 339.571 283.167 346.259 265.009 347.272C255.614 347.796 246.279 344.941 238.96 342.537C234.759 341.157 236.936 342.087 228.576 345.684C215.846 351.162 203.014 351.399 190.709 345.974C190.532 344.325 192.12 342.368 192.957 341.321C196.208 337.254 202.777 335.419 208.663 335.342C219.201 335.205 225.137 336.633 233.73 339.323C236.799 340.284 236.424 340.035 238.569 338.41C241.373 336.285 243.225 333.797 245.682 331.37L256.186 320.524C258.035 318.676 259.877 316.156 262.858 316.695C264.207 316.94 264.603 317.421 265.703 317.705C265.137 315.627 263.275 314.628 262.608 313.45C261.508 311.509 262.845 309.144 261.355 307.478C259.264 305.138 254.742 303.368 250.118 304.411C247.41 305.021 242.373 307.946 240.23 309.261C238.099 310.569 232.752 314.025 229.208 312.64C226.282 311.497 224.602 307.124 223.637 303.756C222.332 299.203 221.583 296.248 222.827 291.233C224.654 283.869 229.154 278.368 231.084 270.56C234.225 257.855 226.237 245.994 221.085 235.261C218.382 229.63 215.206 224.224 212.056 218.784C210.275 215.709 208.431 212.566 206.467 209.713C204.716 207.169 196.695 194.095 192.786 194.164C190.984 196.651 192.372 202.047 192.849 204.889C193.11 206.45 193.994 207.869 192.052 207.854C190.855 206.139 188.017 197.951 183.315 195.641C181.111 194.558 180.707 197.432 180.608 199.353C180.303 205.263 182.047 211.542 183.464 217.143C183.786 218.418 185.025 221.76 184.586 222.743C183.402 223.074 182.041 221.315 181.161 220.653C173.77 215.099 177.607 225.084 178.647 228.216C179.446 230.623 180.633 232.892 181.485 235.249C182.004 236.684 180.92 237.124 179.568 235.675C178.445 234.47 175.809 231.757 173.784 232C172.836 234.577 175.249 239.925 176.177 241.936C176.834 243.361 177.691 244.874 178.426 246.203C179.013 247.263 180.813 249.317 180.413 250.374C179.223 250.738 175.614 248.701 172.627 249.465C168.245 250.587 175.806 258.847 177.104 260.196C177.962 261.087 178.551 261.806 179.361 262.521C180.153 263.22 181.209 263.872 180.64 265.034C179.175 265.006 175.968 262.308 173.281 261.818C167.593 260.779 171.315 269.32 174.689 272.497C176.443 274.148 178.475 275.751 180.765 276.851C181.612 277.257 181.967 277.28 182.169 278.136C180.438 280.153 172.753 275.677 171.013 279.638C170.475 280.865 170.56 282.504 171.199 283.491C173.579 287.166 183.111 289.573 183.072 290.725C182.632 291.724 180.504 292.281 179.456 292.746C178.415 293.207 176.286 293.838 175.863 294.975C177.29 296.022 181.318 297.667 183.224 298.311C186.14 299.297 188.518 299.882 191.752 300.568C195.432 301.35 201.268 303.119 201.263 307.147C201.255 313.095 186.934 314.619 181.259 314.015C178.065 313.674 174.913 312.845 173.874 310.718C173.108 309.149 173.746 307.8 174.441 306.603C175.252 305.204 176.768 304.466 177.08 303.861C175.374 302.989 174.008 302.686 173.1 300.824C171.745 298.043 173.088 297.197 173.191 295.147C170.008 293.657 166.089 289.92 163.986 287.525C158.76 281.573 155.081 274.306 149.228 268.896C145.111 265.091 128.29 261.819 121.983 261.745C119.684 261.719 115.672 261.491 114.9 263.264C114.178 264.921 117.952 266.789 119.108 267.339C126.046 270.642 134.156 272.329 141.685 274.595C142.746 274.915 144.642 275.063 143.737 276.317C142.906 276.627 139.31 275.669 138.097 275.441C134.062 274.682 122.212 273.627 120.205 276.686C121.333 280.593 141.155 282.681 146.693 283.234C147.817 283.346 147.851 283.296 148.298 283.864C148.739 285.087 144.087 285.252 141.616 285.925C137.325 287.093 132.351 289.471 139.432 291.005C143.024 291.783 144.392 291.474 147.353 291.724C148.976 291.862 150.953 291.851 152.629 291.629C153.91 291.46 154.175 291.401 154.974 291.898C154.909 293.449 153.052 293.032 151.489 293.189C149.989 293.339 140.2 295.711 145.297 298.84C147.99 300.493 156.495 301.6 160.375 301.555C161.605 301.541 161.71 301.547 162.155 302.315C161.661 303.453 160.286 303.165 158.938 303.285C158.32 303.34 156.273 303.884 155.436 304.075C153.462 304.528 150.183 305.301 149.431 306.758C150.325 308.266 155.656 309.516 158.245 309.913C159.932 310.171 162.142 310.265 163.904 310.406C166.477 310.611 168.583 311.266 170.854 312.394C171.891 312.91 171.876 313.173 172.563 313.695C175.832 316.178 176.474 316.829 177.172 320.96C177.449 322.597 177.34 324.584 178.199 325.808C179.597 325.97 184.007 323.324 185.264 322.53L188.406 320.435C189.593 319.734 190.63 319.026 191.83 318.433C194.495 317.116 201.066 313.783 202.509 318.705C203.011 320.417 202.38 321.548 201.694 322.83C200.479 325.102 198.743 326.74 197.243 328.715C196.481 329.719 195.686 330.578 194.933 331.578C194.088 332.701 193.712 333.832 193.131 335.106C192.024 337.53 191.095 339.786 189.688 341.915C188.839 343.198 185.937 347.141 183.407 346.045C182.795 345.348 183.259 344.301 182.667 343.325C181.769 343.737 179.847 345.814 178.595 346.613C177.374 347.392 174.754 348.769 172.752 347.922C171.708 346.89 172.478 345.441 172.255 344.119L162.241 348.888C160.9 349.435 157.925 350.412 156.074 350.182C152.968 349.796 152.842 348.199 152.654 346.045C152.122 345.704 151.955 345.685 151.526 345.373C151.317 341.637 158.086 339.162 161.262 338.116C166.566 336.37 166.983 337.706 163.57 339.693C161.469 340.916 156.442 343.037 155.486 344.813C156.669 345.431 162.067 343.728 163.292 343.305C168.277 341.587 179.859 335.628 180.023 330.518C177.67 330.705 174.191 331.622 171.747 332.09C162.498 333.863 141.908 339.027 136.692 345.643C134.864 347.961 134.352 349.477 135.847 352.492C136.948 354.712 137.986 356.534 138.164 359.607C138.72 359.687 143.494 357.914 144.502 357.582C152.343 355.001 158.585 354.362 167.013 355.185C187.487 357.184 207.656 359.727 227.586 363.809L236.311 365.681C237.194 365.9 237.191 365.868 237.532 366.676C238.055 367.912 237.722 368.79 236.815 369.417C235.219 370.521 232.21 370.738 229.833 370.994C227.004 371.299 223.811 371.008 221.236 371.263C221.599 371.744 221.521 371.599 222.218 371.911C223.345 372.414 224.329 372.918 225.216 373.748C228.874 377.167 222.606 380.661 214.099 380.057C214.092 381.133 217.055 382.292 215.456 385.373C213.554 389.036 208.882 390.116 204.717 390.536C201.752 390.835 199.582 390.332 196.889 390.195C197.787 391.972 199.402 392.902 197.677 395.38C196.829 396.599 194.995 397.819 193.192 398.334C191.163 398.914 188.4 398.832 186.32 398.37L180.68 396.47C180.651 397.672 183.842 404.134 176.272 405.669C172.638 406.406 170.082 404.998 167.553 403.192C166.763 402.628 166.12 401.656 165.281 401.392C165.349 403.665 164.73 405.013 163.283 405.877C162.099 406.583 159.901 407.329 157.986 407.095C155.029 406.736 153.442 405.111 151.797 403.246C151.25 402.625 150.873 401.862 150.099 401.593C150.258 402.792 151.18 406.725 150.651 407.595C149.312 408.823 147.874 404.038 147.555 403.367C145.236 398.505 141.898 392.522 135.327 391.62C131.906 391.15 126.812 395.651 125.085 397.169L118.673 402.764C118.225 403.17 116.784 404.434 116.612 404.697C117.029 405.108 116.733 404.898 117.389 405.14C117.742 405.27 118.027 405.33 118.324 405.423C120.643 406.144 126.755 407.626 128.843 406.881C132.492 405.58 136.235 403.782 140.1 402.922C145.159 401.796 143.507 405.953 141.325 407.149C136.619 409.73 130.126 408.13 127.9 408.692C123.234 409.871 120.383 411.123 114.955 411.077C111.185 411.045 108.025 408.39 108.151 412.121L112.027 414.783C116.001 417.294 121.883 422.199 115.187 425.722C115.89 427.767 119.137 430.928 118.042 433.261C117.505 434.406 116.677 434.114 115.195 434.231C115.768 436.023 118.972 443.351 116.161 444.841C114.688 445.623 113.451 444.399 112.532 444.149C112.47 445.958 116.445 454.119 112.096 453.762C108.686 453.483 101.601 442.743 99.5418 439.994C98.55 438.671 97.86 437.462 96.9072 436.086C96.1165 434.944 95.1168 433.232 94.4336 431.841C93.0809 429.088 91.6645 425.684 91.2622 422.054C90.8477 418.316 91.787 413.598 93.4792 411.243C95.5071 408.422 98.7066 407.944 103.403 407.771C107.189 407.632 108.366 408.641 109.424 407.827C110.757 406.804 112.108 406.019 113.456 405.027C113.082 404.233 111.805 403.658 112.405 402.119C112.525 401.81 113.806 399.96 114.114 399.457C115.78 396.735 123.169 382.47 120.947 380.75C119.771 379.84 114.203 380.029 112.033 384.372C110.08 388.281 111.876 388.189 106.661 386.19C105.367 385.693 104.043 385.23 102.666 384.885C102.484 386.244 107.847 391.699 100.59 392.586C97.5943 392.953 89.5965 391.718 87.9643 392.72C88.5495 394.314 92.0464 396.27 93.7447 397.318C94.7203 397.92 95.5276 397.982 95.2542 399.195C94.3977 399.543 92.3068 399.537 90.5131 400.163C89.093 400.658 87.6823 401.348 86.5065 402.022C84.871 402.959 80.8927 405.739 81.004 407.697C82.1614 409.354 84.5312 408.11 85.836 409.265C85.5833 410.406 83.2591 410.813 81.13 412.251C79.5923 413.29 77.8959 414.593 76.7774 415.709C75.3484 417.134 69.9503 421.993 70.7064 424.857C73.1673 425.411 77.7656 423.327 79.5117 422.503C81.2823 421.669 85.7837 418.941 87.3549 418.994C88.23 420.078 88.3754 420.272 88.1741 422.091C87.8347 425.154 84.8829 426.82 82.7073 428.6C81.1776 429.852 79.854 430.905 78.3273 432.213C63.4717 444.932 41.7084 450.533 21.8099 444.363C8.53885 440.249 1.74434 434.123 0 433.48ZM107.295 409.526C107.049 410.666 105.131 411.803 108.343 414.184C110.699 415.93 119.496 420.08 115.72 423.755C114.544 424.901 113.703 423.847 113.102 425.041C112.748 425.672 116.754 430.079 116.613 432.707C114.889 432.853 113.391 431.416 112.883 432.46C112.592 433.059 117.148 441.021 115.297 443.646C113.029 443.595 111.696 440.472 110.227 441.207C109.316 442.013 112.649 447.171 112.485 452.228C110.869 452.152 108.16 448.809 107.199 447.699C104.082 444.097 97.2428 434.522 95.4113 430.34C93.2865 425.488 91.5999 420.847 93.5079 414.75C94.324 412.143 95.4502 410.433 98.263 409.741C100.03 409.305 105.78 408.685 107.295 409.526ZM125.075 367.608C125.07 371.76 128.026 367.555 129.611 366.258C130.607 365.442 134.036 363.173 135.482 362.779C134.778 364.699 130.885 366.715 129.109 368.108C126.316 370.299 118.066 379.813 115.622 372.596C114.49 369.255 114.343 363.647 114.343 359.881C114.343 354.488 117.064 347.194 119.774 344.303C120.511 343.517 121.739 342.582 123.397 342.707C125.11 342.836 125.956 343.918 127.176 344.401C129.618 345.368 133.764 342.393 135.721 342.544C135.016 343.326 134.361 343.709 133.408 344.501C130.521 346.902 129.584 349.583 128.385 353.13C127.353 356.18 125.079 364.222 125.075 367.608ZM234.235 341.143C232.135 343.501 219.865 347.43 215.271 348.1C208.828 349.04 203.726 348.462 197.615 346.856C195.706 346.354 194.178 345.721 192.489 345.257C192.726 342.357 196.841 339.744 199.344 338.603C205.396 335.847 217.003 336.5 223.569 338.011C225.574 338.472 233.264 340.322 234.235 341.143ZM185.137 304.27L185.215 303.258C183.82 302.707 179.244 303.281 176.625 302.158C174.466 301.232 173.189 298.637 174.646 296.178L181.879 299.369C187.181 301.276 194.814 302.216 198.06 304.507C205.468 309.735 187.63 314.567 178.443 312.054C174.724 311.037 174.041 309.101 176.474 306.372C178.795 303.768 182.511 305.352 185.137 304.27ZM126.809 366.564C126.552 364.028 129.879 352.813 131.342 349.523C131.955 348.144 133.755 345.957 134.817 345.437C134.462 346.579 133.827 346.977 133.555 348.508C132.888 352.251 136.001 354.504 136.582 358.579C136.963 361.245 136.312 360.28 132.015 362.897C130.976 363.53 130.202 363.981 129.321 364.633L126.809 366.564ZM123.971 408.238C122.776 409.238 116.089 409.962 113.001 409.432C112.037 409.266 111.388 409.232 110.763 408.754C111.142 408.092 112.632 407.34 113.346 406.858C114.734 405.923 114.766 405.676 116.482 406.36C118.33 407.098 122.884 407.688 123.971 408.238ZM132.659 407.273C132.934 406.887 132.617 407.191 132.999 406.931L134.802 406.26C135.536 405.993 136.305 405.729 137.021 405.438C138.329 404.906 140.222 404.098 141.735 404.172C141.905 406.804 135.417 407.33 132.659 407.273Z" fill="#2A335C"/>
<path fill-rule="evenodd" clip-rule="evenodd" d="M364.917 298.893V296.995C365.636 297.253 368.6 299.605 369.55 300.239C374.497 303.535 379.434 306.289 385.3 308.365C398.886 313.173 412.055 312.643 425.426 307.13C432.799 304.091 438.854 299.426 444.562 294.355C448.148 291.169 451.615 289.537 451.628 285.304C450.673 285.427 444.286 289.031 442.586 289.742C440.264 290.714 432.946 293.475 434.083 288.074C434.924 284.084 441.2 277.978 444.718 275.479C445.463 274.951 446.39 274.643 446.69 273.839C439.653 271.611 449.529 264.283 454.413 262.353C455.097 262.083 456.38 261.76 456.932 261.419C456.571 260.788 456.299 260.847 455.593 260.326C454.277 259.357 452.328 258.081 451.491 256.606C449.52 253.13 456.174 253.984 458.196 254.11C476.329 255.234 462.685 248.312 466.201 246.006C468.172 245.062 472.848 248.054 474.743 248.304C475.552 246.332 475.855 245.257 477.147 243.769C479.51 241.05 486.092 240.113 487.356 242.33C489.218 245.597 484.319 255.736 482.944 258.51C481.82 260.777 480.771 263.244 479.303 265.36C478.491 266.531 478.627 267.065 479.878 267.562C480.54 267.233 483.12 264.789 483.781 264.062C484.912 262.817 486.422 261.728 487.629 260.504C489.522 258.585 493.379 255.267 496.066 253.937C500.315 251.833 504.228 253.758 506.92 256.082C508.764 257.674 510.522 260.03 511.824 262.296L513.436 264.807C513.286 263.589 512.957 262.797 513.234 261.738C514.448 261.429 515.024 262.394 515.778 263.264C517.672 265.445 519.38 268.721 522.661 269.348C525.098 269.814 528.143 268.491 528.559 266.706C529.204 263.94 526.27 260.892 527.327 260.157C528.378 259.666 529.332 261.553 530.015 262.252C530.965 263.225 531.67 264.058 532.674 264.947C534.466 266.535 536.762 268.428 540.357 268.01C546.679 267.274 545.251 259.774 541.572 256.726C540.764 256.057 540.763 255.87 541.457 255.145C542.484 255.12 544.561 257.685 548.661 259.311C552.184 260.708 559.336 261.728 561.465 257.367C563.58 253.031 551.836 250.643 553.974 248.694C554.729 248.314 555.439 249.019 556.013 249.359C558.241 250.678 560.66 251.27 563.361 251.692C576.778 253.785 585.727 244.567 573.35 241.578C570.745 240.949 568.52 241.7 568.028 240.326C568.735 238.857 572.036 239.811 573.463 240.032C577.29 240.627 581.838 241.444 585.598 240.377C587.179 239.928 589.151 239.181 589.667 237.664C589.086 236.14 587.073 235.189 585.455 234.48C584.172 233.918 581.321 232.851 579.917 232.611C578.999 232.453 577.5 232.492 576.448 232.388C574.575 232.203 567.92 232.079 567.058 230.497C567.707 228.575 573.478 229.693 575.13 229.986C576.579 230.244 577.86 230.501 579.197 230.865C582.809 231.847 599.831 231.994 601.238 229.063C600.733 228.017 597.23 227.622 595.967 227.333C594.041 226.893 592.175 226.526 590.197 226.09C586.279 225.225 582.328 224.544 578.334 223.734C561.953 220.41 545.042 218.799 528.336 217.062C520.641 216.263 510.459 219.257 504.753 221.792C500.527 223.669 503.661 224.623 497.765 228.785C494.544 231.057 493.017 232.764 490.112 235.337C487.957 237.245 483.823 240.629 480.567 237.389C478.438 235.27 478.078 229.78 477.838 226.001C477.364 218.569 478.656 208.876 483.526 203.4C488.013 198.356 491.388 203.34 493.686 203.089C495.178 202.926 497.485 201.793 498.942 201.287C500.148 200.869 501.972 200.159 503.334 200.476C504.447 200.735 503.564 200.73 504.439 201.226C512.018 196.957 515.188 195.798 523.933 193.111C525.269 192.7 543.352 188.013 545.513 188.071C548.718 188.157 544.921 194.098 542.93 195.993C537.565 201.095 528.273 206.552 520.306 206.517C519.283 206.513 518.771 206.385 519.163 207.645C520.606 212.284 532.964 204.596 535.662 203.124C536.379 202.733 538.203 201.418 538.934 202.005C539.535 202.68 539.1 202.969 538.869 204.036L538.681 206.119C538.913 207.467 538.404 205.328 538.781 206.469C539.357 208.212 544.03 204.531 544.386 204.192C545.147 203.468 545.69 202.857 546.425 202.116C547.107 201.428 547.882 200.107 548.814 200.576C549.187 201.127 549.261 203.834 549.565 204.695C553.817 203.537 556.02 193.519 559.79 188.347C560.469 187.417 561.069 186.806 561.809 185.85C563.377 183.822 566.971 180.011 565.816 177.179C563.916 172.523 550.347 182.811 548.304 184.116C541.477 188.475 541.576 186.674 540.427 179.025C540.099 176.842 540.305 177.376 539.434 175.709C538.851 174.593 535.764 172.027 534.57 171.53C529.51 169.422 528.324 170.287 523.268 169.434C521.169 169.08 509.426 166.772 513.53 162.928C514.294 162.212 515.362 161.758 516.445 161.314C517.251 160.983 519.115 160.782 519.654 160.052C518.879 159.81 517.66 159.838 516.789 159.693C515.86 159.539 514.9 159.383 513.983 159.183C505.106 157.252 506.027 152.122 510.004 150.832L511.278 150.223C509.313 149.271 502.005 150.296 499.694 147.357C498.107 145.339 500.053 143.784 501.407 142.919C503.179 141.786 505.16 141.623 506.859 140.777C506.358 140.431 498.314 139.309 496.95 139.017C493.107 138.197 486.833 137.082 484.197 134.274C482.78 132.766 483.937 131.248 485.21 130.54C488.149 128.905 494.646 129.369 495.48 128.63C492.314 128.071 486.552 125.695 483.837 124.377C482.274 123.618 480.105 122.291 479.196 121.204C477.521 119.203 477.998 117.103 480.136 116.077C485.653 113.431 501.935 117.663 507.16 119.267C511.906 120.723 513.647 121.644 517.086 125.182C522.135 130.376 525.561 138.351 530.421 143.695C532.045 145.481 536.672 150.085 539.113 151.042C540.041 150.614 541.712 149.227 543.467 148.411C544.268 148.038 544.564 148.118 545.171 147.561L543.758 146.832C543.197 146.603 542.755 146.345 542.24 146.106C541.268 145.656 540.337 145.212 539.355 144.652C537.566 143.632 535.727 142.159 534.804 140.567C533.642 138.561 533.862 135.719 535.21 134.061C537.287 131.509 540.509 133.253 542.213 132.612C542.187 132.57 542.136 132.463 542.121 132.496L540.003 130.711C537.016 128.019 531.72 121.103 534.316 116.994C535.777 114.682 538.065 115.511 540.517 115.961C540.126 114.996 538.332 113.221 537.553 112.051C536.763 110.867 535.635 109.19 535.05 107.569C534.214 105.246 534.753 103.391 536.503 102.581C538.568 101.626 540.673 102.384 542.744 102.556C542.489 101.739 541.689 100.569 541.286 99.7384C539.806 96.6883 534.779 86.7988 537.774 84.1796C539.671 82.5204 542.306 85.3996 543.554 85.9549C542.694 82.1487 540.748 78.8397 540.31 74.6819C540.078 72.4668 540.17 70.0326 542.42 69.926C544.742 69.8163 545.998 71.7587 547.405 72.1688L545.168 61.8872C544.428 58.4452 543.898 54.1924 544.034 50.4901C544.349 41.9545 549.675 44.9157 552.989 49.214C553.418 49.7698 555.236 52.7014 555.567 52.9094C555.824 50.5399 554.912 48.1976 555.78 45.5335C557.982 38.7677 566.601 51.6115 568.077 53.7076C574.148 62.3307 581.137 75.1218 585.745 84.7124C587.473 88.3097 589.423 91.9471 590.999 95.6653C597.093 110.036 601.57 118.128 595.106 133.91C590.957 144.04 587.036 147.965 589.518 158.982C590.343 162.646 592.065 168.86 595.324 169.607C598.282 170.285 604.1 166.137 606.51 164.661C609.905 162.581 613.047 160.228 618.374 160.251C622.405 160.268 627.988 163.215 628.448 166.43C628.631 167.706 628.287 169.15 628.636 170.336C629.197 172.244 633.615 175.214 632.502 178.532C631.047 178.823 629.424 177.088 627.657 176.626C625.59 176.086 624.617 177.841 623.429 178.996C619.147 183.16 608.661 195.571 606.712 197.227C606.069 197.773 603.345 199.911 603.095 200.635C608.892 202.54 614.615 204.68 621.408 205.585C644.799 208.702 662.76 196.421 677.41 180.537L680.237 177.614C687.654 169.888 692.661 164.09 701.507 157.975C703.234 156.781 707.353 154.943 709.454 154.174C714.6 152.291 724.631 152.017 729.769 154.37L729.833 155.938C725.458 155.595 723.617 153.523 716.185 154.275C711.219 154.777 708.033 156.226 704.441 158.028C701.606 159.449 702.084 159.403 699.791 160.978C695.952 163.614 692.669 166.864 689.421 170.14L685.697 174.014C681.373 178.773 676.938 183.463 672.251 187.912C660.209 199.342 648.083 206.432 629.926 207.506C620.53 208.061 611.196 205.035 603.876 202.486C599.675 201.023 601.852 202.009 593.493 205.822C580.762 211.629 567.93 211.881 555.626 206.13C555.448 204.381 557.037 202.306 557.873 201.197C561.124 196.886 567.693 194.941 573.58 194.859C584.118 194.713 590.053 196.227 598.646 199.079C601.716 200.098 601.341 199.834 603.486 198.111C606.29 195.859 608.141 193.221 610.598 190.648L621.103 179.15C622.952 177.192 624.793 174.519 627.774 175.092C629.123 175.351 629.52 175.861 630.619 176.162C630.054 173.959 628.192 172.9 627.525 171.652C626.425 169.594 627.761 167.087 626.272 165.32C624.18 162.84 619.659 160.963 615.034 162.069C612.327 162.716 607.29 165.816 605.146 167.211C603.016 168.597 597.668 172.261 594.125 170.793C591.199 169.581 589.518 164.946 588.553 161.375C587.249 156.548 586.499 153.415 587.743 148.1C589.57 140.293 594.071 134.461 596.001 126.184C599.142 112.716 591.153 100.142 586.001 88.7644C583.298 82.7951 580.123 77.0644 576.972 71.2968C575.192 68.0376 573.347 64.7052 571.384 61.6814C569.633 58.9842 561.612 45.1251 557.702 45.198C555.9 47.8339 557.288 53.5543 557.765 56.5672C558.027 58.2219 558.91 59.7267 556.968 59.7101C555.771 57.8925 552.933 49.2121 548.232 46.7639C546.027 45.6159 545.624 48.6618 545.525 50.6983C545.219 56.9639 546.964 63.6196 548.381 69.5577C548.703 70.9096 549.941 74.4517 549.502 75.4941C548.319 75.8449 546.957 73.9801 546.077 73.2786C538.687 67.3905 542.523 77.9755 543.564 81.2958C544.363 83.8479 545.549 86.2533 546.402 88.7512C546.921 90.2728 545.836 90.7392 544.485 89.203C543.361 87.9262 540.725 85.05 538.701 85.3077C537.752 88.0387 540.166 93.7085 541.093 95.8405C541.75 97.351 542.608 98.9547 543.343 100.363C543.93 101.488 545.73 103.665 545.33 104.785C544.139 105.171 540.53 103.011 537.543 103.822C533.162 105.011 540.722 113.767 542.021 115.197C542.878 116.142 543.467 116.905 544.278 117.663C545.069 118.403 546.125 119.094 545.557 120.326C544.092 120.297 540.884 117.437 538.198 116.917C532.509 115.816 536.232 124.87 539.606 128.238C541.359 129.988 543.392 131.687 545.682 132.853C546.528 133.284 546.883 133.308 547.085 134.215C545.355 136.354 537.669 131.609 535.93 135.808C535.391 137.109 535.477 138.846 536.116 139.893C538.495 143.788 548.028 146.339 547.988 147.561C547.549 148.62 545.421 149.211 544.372 149.703C543.331 150.193 541.203 150.861 540.779 152.066C542.207 153.176 546.234 154.92 548.14 155.602C551.057 156.648 553.434 157.268 556.668 157.996C560.349 158.824 566.185 160.7 566.179 164.969C566.171 171.275 551.851 172.891 546.176 172.25C542.982 171.889 539.829 171.01 538.791 168.755C538.025 167.092 538.662 165.662 539.357 164.393C540.169 162.91 541.685 162.128 541.997 161.486C540.29 160.562 538.924 160.241 538.017 158.266C536.662 155.319 538.004 154.422 538.108 152.248C534.924 150.669 531.005 146.707 528.903 144.168C523.676 137.859 519.997 130.156 514.144 124.42C510.027 120.386 493.206 116.918 486.899 116.84C484.6 116.812 480.588 116.571 479.816 118.45C479.095 120.206 482.869 122.187 484.025 122.77C490.963 126.271 499.072 128.06 506.601 130.462C507.663 130.801 509.558 130.958 508.653 132.288C507.822 132.616 504.227 131.6 503.014 131.358C498.978 130.554 487.129 129.436 485.122 132.678C486.249 136.82 506.071 139.034 511.609 139.619C512.733 139.738 512.768 139.685 513.215 140.288C513.655 141.584 509.003 141.76 506.532 142.473C502.242 143.711 497.268 146.232 504.349 147.858C507.941 148.683 509.308 148.355 512.269 148.62C513.893 148.766 515.87 148.754 517.546 148.52C518.827 148.34 519.091 148.277 519.89 148.804C519.826 150.449 517.968 150.007 516.406 150.172C514.905 150.331 505.117 152.847 510.214 156.164C512.906 157.916 521.411 159.089 525.292 159.041C526.522 159.026 526.627 159.033 527.072 159.848C526.577 161.054 525.203 160.748 523.854 160.876C523.236 160.934 521.189 161.51 520.353 161.713C518.378 162.193 515.099 163.013 514.347 164.558C515.241 166.156 520.572 167.481 523.162 167.902C524.848 168.176 527.058 168.275 528.821 168.424C531.394 168.642 533.5 169.336 535.77 170.532C536.808 171.079 536.792 171.358 537.48 171.911C540.748 174.543 541.391 175.233 542.089 179.613C542.365 181.348 542.256 183.454 543.115 184.752C544.513 184.924 548.924 182.118 550.18 181.277L553.322 179.056C554.51 178.313 555.546 177.563 556.747 176.934C559.411 175.538 565.983 172.004 567.426 177.222C567.928 179.037 567.296 180.236 566.611 181.595C565.395 184.003 563.66 185.739 562.16 187.834C561.397 188.898 560.602 189.808 559.849 190.869C559.005 192.059 558.629 193.258 558.047 194.608C556.941 197.178 556.011 199.57 554.604 201.826C553.756 203.186 550.853 207.367 548.324 206.204C547.712 205.466 548.175 204.356 547.583 203.322C546.686 203.758 544.764 205.96 543.511 206.807C542.29 207.633 539.671 209.092 537.669 208.195C536.624 207.101 537.395 205.565 537.172 204.163L527.158 209.219C525.817 209.799 522.841 210.834 520.99 210.59C517.885 210.182 517.759 208.488 517.571 206.204C517.039 205.843 516.872 205.823 516.443 205.492C516.234 201.532 523.003 198.908 526.178 197.8C531.482 195.948 531.899 197.365 528.487 199.471C526.386 200.768 521.358 203.017 520.402 204.899C521.586 205.554 526.984 203.748 528.209 203.301C533.194 201.479 544.776 195.162 544.94 189.745C542.587 189.943 539.108 190.915 536.664 191.412C527.414 193.291 506.825 198.765 501.608 205.778C499.78 208.236 499.269 209.843 500.763 213.039C501.864 215.393 502.902 217.324 503.08 220.582C503.637 220.667 508.41 218.787 509.419 218.435C517.26 215.699 523.502 215.021 531.929 215.894C552.403 218.013 572.572 220.709 592.503 225.036L601.228 227.021C602.11 227.253 602.108 227.219 602.449 228.076C602.972 229.386 602.638 230.317 601.731 230.981C600.135 232.151 597.127 232.382 594.749 232.653C591.921 232.976 588.728 232.667 586.153 232.938C586.515 233.447 586.438 233.294 587.134 233.625C588.261 234.159 589.246 234.692 590.133 235.572C593.79 239.197 587.523 242.901 579.016 242.26C579.008 243.402 581.972 244.63 580.372 247.896C578.471 251.779 573.798 252.924 569.634 253.369C566.668 253.686 564.499 253.153 561.805 253.007C562.704 254.891 564.318 255.878 562.594 258.505C561.745 259.796 559.911 261.09 558.108 261.636C556.08 262.251 553.316 262.163 551.236 261.674L545.597 259.66C545.568 260.934 548.759 267.784 541.188 269.412C537.555 270.193 534.999 268.7 532.47 266.786C531.68 266.188 531.037 265.157 530.197 264.877C530.266 267.287 529.647 268.716 528.199 269.632C527.015 270.38 524.817 271.171 522.902 270.924C519.945 270.543 518.359 268.82 516.714 266.843C516.167 266.185 515.789 265.376 515.015 265.09C515.174 266.362 516.096 270.531 515.567 271.453C514.228 272.755 512.791 267.683 512.471 266.971C510.153 261.817 506.815 255.475 500.243 254.518C496.822 254.02 491.729 258.791 490.001 260.401L483.589 266.332C483.142 266.762 481.701 268.102 481.528 268.381C481.945 268.817 481.65 268.594 482.306 268.851C482.659 268.989 482.943 269.053 483.24 269.15C485.56 269.915 491.672 271.486 493.759 270.697C497.409 269.317 501.152 267.411 505.016 266.499C510.075 265.306 508.423 269.713 506.242 270.981C501.536 273.716 495.043 272.02 492.817 272.616C488.15 273.866 485.299 275.193 479.872 275.144C476.101 275.11 472.941 272.296 473.067 276.251L476.944 279.073C480.917 281.734 486.8 286.934 480.104 290.669C480.806 292.837 484.054 296.188 482.959 298.661C482.421 299.876 481.594 299.565 480.111 299.689C480.685 301.589 483.889 309.358 481.078 310.938C479.605 311.766 478.367 310.469 477.449 310.204C477.386 312.122 481.362 320.772 477.012 320.394C473.603 320.098 466.518 308.713 464.458 305.799C463.467 304.396 462.776 303.115 461.824 301.656C461.033 300.445 460.033 298.631 459.35 297.156C457.997 294.238 456.581 290.629 456.179 286.781C455.764 282.819 456.704 277.816 458.396 275.321C460.424 272.33 463.623 271.823 468.32 271.64C472.105 271.493 473.282 272.562 474.341 271.7C475.673 270.615 477.025 269.782 478.373 268.731C477.998 267.889 476.721 267.28 477.321 265.648C477.442 265.321 478.723 263.359 479.031 262.826C480.697 259.941 488.085 244.818 485.864 242.995C484.688 242.03 479.12 242.231 476.949 246.835C474.996 250.978 476.792 250.882 471.578 248.762C470.283 248.235 468.959 247.745 467.583 247.379C467.4 248.819 472.763 254.602 465.507 255.542C462.511 255.931 454.513 254.622 452.881 255.685C453.466 257.374 456.963 259.447 458.661 260.559C459.637 261.197 460.444 261.262 460.171 262.548C459.314 262.917 457.223 262.911 455.43 263.574C454.01 264.099 452.599 264.831 451.423 265.545C449.787 266.539 445.809 269.485 445.921 271.561C447.078 273.318 449.448 272 450.753 273.223C450.5 274.433 448.176 274.864 446.046 276.389C444.509 277.491 442.812 278.872 441.694 280.055C440.265 281.566 434.867 286.716 435.623 289.753C438.084 290.339 442.682 288.13 444.428 287.257C446.199 286.373 450.7 283.481 452.271 283.537C453.146 284.686 453.292 284.892 453.091 286.82C452.751 290.067 449.799 291.834 447.624 293.72C446.094 295.047 444.771 296.164 443.244 297.55C428.388 311.033 406.625 316.971 386.726 310.431C373.455 306.069 366.661 299.576 364.917 298.893ZM472.212 273.5C471.966 274.709 470.048 275.914 473.26 278.438C475.616 280.289 484.413 284.688 480.636 288.585C479.46 289.799 478.62 288.682 478.018 289.947C477.664 290.616 481.67 295.288 481.529 298.074C479.805 298.229 478.308 296.706 477.8 297.812C477.508 298.447 482.065 306.888 480.214 309.67C477.946 309.617 476.613 306.305 475.144 307.085C474.233 307.939 477.566 313.408 477.401 318.768C475.785 318.688 473.076 315.143 472.116 313.967C468.999 310.149 462.159 299.998 460.328 295.565C458.203 290.422 456.516 285.501 458.424 279.038C459.241 276.274 460.367 274.462 463.18 273.728C464.947 273.266 470.697 272.608 472.212 273.5ZM489.991 229.063C489.987 233.465 492.942 229.008 494.527 227.633C495.524 226.768 498.952 224.362 500.398 223.945C499.694 225.979 495.802 228.117 494.026 229.594C491.233 231.917 482.983 242.002 480.538 234.352C479.407 230.809 479.259 224.864 479.259 220.872C479.259 215.156 481.981 207.423 484.69 204.358C485.427 203.525 486.655 202.534 488.314 202.666C490.026 202.803 490.873 203.95 492.093 204.462C494.535 205.487 498.68 202.334 500.638 202.494C499.933 203.323 499.278 203.728 498.325 204.568C495.437 207.113 494.501 209.956 493.301 213.715C492.27 216.948 489.995 225.474 489.991 229.063ZM599.152 201.009C597.051 203.508 584.782 207.673 580.187 208.384C573.745 209.38 568.642 208.767 562.532 207.064C560.622 206.532 559.095 205.861 557.406 205.37C557.642 202.295 561.757 199.525 564.261 198.316C570.313 195.394 581.92 196.087 588.486 197.688C590.49 198.177 598.181 200.138 599.152 201.009ZM550.054 161.919L550.132 160.847C548.737 160.263 544.161 160.871 541.542 159.681C539.382 158.699 538.106 155.948 539.562 153.342L546.795 156.724C552.098 158.746 559.73 159.743 562.976 162.171C570.385 167.714 552.547 172.835 543.36 170.172C539.641 169.093 538.957 167.041 541.391 164.148C543.712 161.388 547.428 163.066 550.054 161.919ZM491.726 227.957C491.469 225.269 494.795 213.38 496.258 209.892C496.871 208.43 498.672 206.112 499.734 205.561C499.379 206.771 498.744 207.193 498.471 208.815C497.805 212.784 500.917 215.172 501.499 219.492C501.88 222.318 501.228 221.295 496.932 224.069C495.892 224.74 495.118 225.219 494.238 225.91L491.726 227.957ZM488.888 272.135C487.693 273.195 481.006 273.963 477.918 273.401C476.953 273.225 476.305 273.189 475.68 272.682C476.058 271.98 477.548 271.182 478.263 270.672C479.651 269.681 479.683 269.419 481.399 270.144C483.247 270.926 487.8 271.551 488.888 272.135ZM497.576 271.112C497.85 270.702 497.533 271.025 497.916 270.749L499.719 270.038C500.452 269.755 501.221 269.475 501.937 269.167C503.246 268.603 505.138 267.746 506.651 267.824C506.821 270.614 500.333 271.172 497.576 271.112Z" fill="#2A335C"/>
</svg>
