<svg width="406" height="103" viewBox="0 0 406 103" fill="none" xmlns="http://www.w3.org/2000/svg">
<path d="M2.90088 99V101H4.90088H25.5559H26.5688L27.1681 100.184L68.6459 43.6794V99V101H70.6459H92.2459H94.2459V99V4.5V2.5H92.2459H71.7259H70.7117L70.1124 3.31819L28.6359 59.9448V4.5V2.5H26.6359H4.90088H2.90088V4.5V99ZM113.775 99V101H115.775H137.645H139.645V99V74.945H156.68C165.347 74.945 172.925 73.5626 179.357 70.7248L179.368 70.7199L179.38 70.7148C185.81 67.7832 190.845 63.5848 194.402 58.1039C197.973 52.6039 199.72 46.1379 199.72 38.79C199.72 31.3577 197.975 24.8452 194.402 19.3411C190.843 13.8574 185.804 9.70167 179.368 6.86007C172.932 3.92832 165.35 2.5 156.68 2.5H115.775H113.775V4.5V99ZM155.465 53.125H139.645V24.32H155.465C161.98 24.32 166.461 25.7172 169.277 28.1527C172.085 30.5816 173.58 34.0321 173.58 38.79C173.58 43.4454 172.093 46.8565 169.277 49.2923C166.461 51.7278 161.98 53.125 155.465 53.125ZM194.909 98.1858L193.655 101H196.736H219.146H220.48L220.993 99.768L228.901 80.75H270.036L277.913 99.7654L278.425 101H279.761H302.711H305.796L304.537 98.1836L262.282 3.68361L261.752 2.5H260.456H238.856H237.558L237.029 3.68579L194.909 98.1858ZM249.509 31.1957L261.501 60.145H237.47L249.509 31.1957ZM380.043 2.5H378.043V4.5V39.76H339.113V4.5V2.5H337.113H315.243H313.243V4.5V99V101H315.243H337.113H339.113V99V62.255H378.043V99V101H380.043H401.913H403.913V99V4.5V2.5H401.913H380.043Z" fill="white" stroke="#2A335C" stroke-width="4"/>
</svg>
