<svg width="382" height="133" viewBox="0 0 382 133" fill="none" xmlns="http://www.w3.org/2000/svg">
<g filter="url(#filter0_d_251_1106)">
<mask id="path-1-outside-1_251_1106" maskUnits="userSpaceOnUse" x="20.2758" y="5.96094" width="342" height="92" fill="black">
<rect fill="white" x="20.2758" y="5.96094" width="342" height="92"/>
<path d="M89.2924 40.0009V8.50094H111.522L111.477 14.4409H94.8274L96.4924 12.7759L96.5374 40.0009H89.2924Z"/>
<path d="M127.834 40.5409C125.344 40.5409 123.034 40.1359 120.904 39.3259C118.804 38.5159 116.974 37.3759 115.414 35.9059C113.884 34.4359 112.684 32.7109 111.814 30.7309C110.974 28.7509 110.554 26.5909 110.554 24.2509C110.554 21.9109 110.974 19.7509 111.814 17.7709C112.684 15.7909 113.899 14.0659 115.459 12.5959C117.019 11.1259 118.849 9.98594 120.949 9.17594C123.049 8.36594 125.329 7.96094 127.789 7.96094C130.279 7.96094 132.559 8.36594 134.629 9.17594C136.729 9.98594 138.544 11.1259 140.074 12.5959C141.634 14.0659 142.849 15.7909 143.719 17.7709C144.589 19.7209 145.024 21.8809 145.024 24.2509C145.024 26.5909 144.589 28.7659 143.719 30.7759C142.849 32.7559 141.634 34.4809 140.074 35.9509C138.544 37.3909 136.729 38.5159 134.629 39.3259C132.559 40.1359 130.294 40.5409 127.834 40.5409ZM127.789 34.3309C129.199 34.3309 130.489 34.0909 131.659 33.6109C132.859 33.1309 133.909 32.4409 134.809 31.5409C135.709 30.6409 136.399 29.5759 136.879 28.3459C137.389 27.1159 137.644 25.7509 137.644 24.2509C137.644 22.7509 137.389 21.3859 136.879 20.1559C136.399 18.9259 135.709 17.8609 134.809 16.9609C133.939 16.0609 132.904 15.3709 131.704 14.8909C130.504 14.4109 129.199 14.1709 127.789 14.1709C126.379 14.1709 125.074 14.4109 123.874 14.8909C122.704 15.3709 121.669 16.0609 120.769 16.9609C119.869 17.8609 119.164 18.9259 118.654 20.1559C118.174 21.3859 117.934 22.7509 117.934 24.2509C117.934 25.7209 118.174 27.0859 118.654 28.3459C119.164 29.5759 119.854 30.6409 120.724 31.5409C121.624 32.4409 122.674 33.1309 123.874 33.6109C125.074 34.0909 126.379 34.3309 127.789 34.3309Z"/>
<path d="M150.076 40.4959C149.536 40.4959 148.966 40.4509 148.366 40.3609C147.796 40.2709 147.166 40.1509 146.476 40.0009L146.926 33.8359C147.346 33.9559 147.781 34.0159 148.231 34.0159C149.461 34.0159 150.421 33.5209 151.111 32.5309C151.801 31.5109 152.296 30.0559 152.596 28.1659C152.896 26.2759 153.091 23.9809 153.181 21.2809L153.631 8.50094H177.841V40.0009H170.641V12.7759L172.306 14.4409H158.401L159.886 12.6859L159.616 21.0109C159.526 24.1009 159.316 26.8459 158.986 29.2459C158.656 31.6459 158.146 33.6859 157.456 35.3659C156.766 37.0459 155.821 38.3209 154.621 39.1909C153.421 40.0609 151.906 40.4959 150.076 40.4959Z"/>
<path d="M186.788 34.0609C188.528 34.5709 189.983 34.7209 191.153 34.5109C192.353 34.2709 193.418 33.4309 194.348 31.9909L195.878 29.6959L196.553 28.9309L206.993 8.50094H214.148L200.738 33.4309C199.538 35.6809 198.113 37.4059 196.463 38.6059C194.843 39.8059 193.058 40.4809 191.108 40.6309C189.158 40.8109 187.133 40.4659 185.033 39.5959L186.788 34.0609ZM196.418 35.0059L182.198 8.50094H189.983L200.423 29.6509L196.418 35.0059Z"/>
<path d="M217.613 40.0009V8.50094H243.038V14.3059H224.858V20.7859H233.588C237.398 20.7859 240.293 21.5809 242.273 23.1709C244.283 24.7609 245.288 27.0709 245.288 30.1009C245.288 33.2209 244.178 35.6509 241.958 37.3909C239.738 39.1309 236.603 40.0009 232.553 40.0009H217.613ZM224.858 34.6009H232.148C234.008 34.6009 235.433 34.2409 236.423 33.5209C237.413 32.7709 237.908 31.6909 237.908 30.2809C237.908 27.5209 235.988 26.1409 232.148 26.1409H224.858V34.6009Z"/>
<path d="M250.835 40.0009V8.50094H258.08V29.0209L273.11 8.50094H279.95V40.0009H272.75V19.5259L257.72 40.0009H250.835Z"/>
<path d="M22.2758 95.0009V63.5009H36.9458C40.6058 63.5009 43.4558 64.2059 45.4958 65.6159C47.5358 67.0259 48.5558 69.0359 48.5558 71.6459C48.5558 74.2259 47.5958 76.2359 45.6758 77.6759C43.7558 79.0859 41.2058 79.7909 38.0258 79.7909L38.8808 77.9009C42.4208 77.9009 45.1658 78.6059 47.1158 80.0159C49.0658 81.4259 50.0408 83.4659 50.0408 86.1359C50.0408 88.8959 48.9908 91.0709 46.8908 92.6609C44.8208 94.2209 41.7908 95.0009 37.8008 95.0009H22.2758ZM29.5208 89.6009H37.5308C39.2108 89.6009 40.4858 89.2709 41.3558 88.6109C42.2258 87.9509 42.6608 86.9309 42.6608 85.5509C42.6608 84.2309 42.2258 83.2559 41.3558 82.6259C40.4858 81.9659 39.2108 81.6359 37.5308 81.6359H29.5208V89.6009ZM29.5208 76.5509H36.3158C37.9058 76.5509 39.1058 76.2359 39.9158 75.6059C40.7258 74.9459 41.1308 73.9859 41.1308 72.7259C41.1308 71.4659 40.7258 70.5209 39.9158 69.8909C39.1058 69.2309 37.9058 68.9009 36.3158 68.9009H29.5208V76.5509Z"/>
<path d="M104.19 95.0009L95.7302 79.8359L101.895 76.2809L112.605 95.0009H104.19ZM90.3752 82.3109V76.2359H100.185V82.3109H90.3752ZM102.3 80.0609L95.5502 79.2509L104.325 63.5009H112.02L102.3 80.0609ZM73.6352 95.0009H65.2202L75.9302 76.2809L82.0952 79.8359L73.6352 95.0009ZM92.5352 95.0009H85.3802V63.5009H92.5352V95.0009ZM87.4952 82.3109H77.6402V76.2359H87.4952V82.3109ZM75.5702 80.0609L65.8052 63.5009H73.5002L82.2302 79.2509L75.5702 80.0609Z"/>
<path d="M116.099 95.0009V63.5009H123.344V84.0209L138.374 63.5009H145.214V95.0009H138.014V74.5259L122.984 95.0009H116.099Z"/>
<path d="M153.057 95.0009V63.5009H167.727C171.387 63.5009 174.237 64.2059 176.277 65.6159C178.317 67.0259 179.337 69.0359 179.337 71.6459C179.337 74.2259 178.377 76.2359 176.457 77.6759C174.537 79.0859 171.987 79.7909 168.807 79.7909L169.662 77.9009C173.202 77.9009 175.947 78.6059 177.897 80.0159C179.847 81.4259 180.822 83.4659 180.822 86.1359C180.822 88.8959 179.772 91.0709 177.672 92.6609C175.602 94.2209 172.572 95.0009 168.582 95.0009H153.057ZM160.302 89.6009H168.312C169.992 89.6009 171.267 89.2709 172.137 88.6109C173.007 87.9509 173.442 86.9309 173.442 85.5509C173.442 84.2309 173.007 83.2559 172.137 82.6259C171.267 81.9659 169.992 81.6359 168.312 81.6359H160.302V89.6009ZM160.302 76.5509H167.097C168.687 76.5509 169.887 76.2359 170.697 75.6059C171.507 74.9459 171.912 73.9859 171.912 72.7259C171.912 71.4659 171.507 70.5209 170.697 69.8909C169.887 69.2309 168.687 68.9009 167.097 68.9009H160.302V76.5509Z"/>
<path d="M201.662 95.5409C199.172 95.5409 196.862 95.1359 194.732 94.3259C192.632 93.5159 190.802 92.3759 189.242 90.9059C187.712 89.4359 186.512 87.7109 185.642 85.7309C184.802 83.7509 184.382 81.5909 184.382 79.2509C184.382 76.9109 184.802 74.7509 185.642 72.7709C186.512 70.7909 187.727 69.0659 189.287 67.5959C190.847 66.1259 192.677 64.9859 194.777 64.1759C196.877 63.3659 199.157 62.9609 201.617 62.9609C204.107 62.9609 206.387 63.3659 208.457 64.1759C210.557 64.9859 212.372 66.1259 213.902 67.5959C215.462 69.0659 216.677 70.7909 217.547 72.7709C218.417 74.7209 218.852 76.8809 218.852 79.2509C218.852 81.5909 218.417 83.7659 217.547 85.7759C216.677 87.7559 215.462 89.4809 213.902 90.9509C212.372 92.3909 210.557 93.5159 208.457 94.3259C206.387 95.1359 204.122 95.5409 201.662 95.5409ZM201.617 89.3309C203.027 89.3309 204.317 89.0909 205.487 88.6109C206.687 88.1309 207.737 87.4409 208.637 86.5409C209.537 85.6409 210.227 84.5759 210.707 83.3459C211.217 82.1159 211.472 80.7509 211.472 79.2509C211.472 77.7509 211.217 76.3859 210.707 75.1559C210.227 73.9259 209.537 72.8609 208.637 71.9609C207.767 71.0609 206.732 70.3709 205.532 69.8909C204.332 69.4109 203.027 69.1709 201.617 69.1709C200.207 69.1709 198.902 69.4109 197.702 69.8909C196.532 70.3709 195.497 71.0609 194.597 71.9609C193.697 72.8609 192.992 73.9259 192.482 75.1559C192.002 76.3859 191.762 77.7509 191.762 79.2509C191.762 80.7209 192.002 82.0859 192.482 83.3459C192.992 84.5759 193.682 85.6409 194.552 86.5409C195.452 87.4409 196.502 88.1309 197.702 88.6109C198.902 89.0909 200.207 89.3309 201.617 89.3309Z"/>
<path d="M224.468 95.0009V63.5009H253.178V95.0009H245.933V67.7759L247.598 69.4409H230.048L231.713 67.7759V95.0009H224.468Z"/>
<path d="M260.987 95.0009V63.5009H268.232V84.0209L283.262 63.5009H290.102V95.0009H282.902V74.5259L267.872 95.0009H260.987Z"/>
<path d="M312.84 95.5409C310.41 95.5409 308.145 95.1509 306.045 94.3709C303.975 93.5609 302.175 92.4209 300.645 90.9509C299.115 89.4809 297.915 87.7559 297.045 85.7759C296.205 83.7959 295.785 81.6209 295.785 79.2509C295.785 76.8809 296.205 74.7059 297.045 72.7259C297.915 70.7459 299.115 69.0209 300.645 67.5509C302.205 66.0809 304.02 64.9559 306.09 64.1759C308.16 63.3659 310.425 62.9609 312.885 62.9609C315.615 62.9609 318.075 63.4409 320.265 64.4009C322.485 65.3309 324.345 66.7109 325.845 68.5409L321.165 72.8609C320.085 71.6309 318.885 70.7159 317.565 70.1159C316.245 69.4859 314.805 69.1709 313.245 69.1709C311.775 69.1709 310.425 69.4109 309.195 69.8909C307.965 70.3709 306.9 71.0609 306 71.9609C305.1 72.8609 304.395 73.9259 303.885 75.1559C303.405 76.3859 303.165 77.7509 303.165 79.2509C303.165 80.7509 303.405 82.1159 303.885 83.3459C304.395 84.5759 305.1 85.6409 306 86.5409C306.9 87.4409 307.965 88.1309 309.195 88.6109C310.425 89.0909 311.775 89.3309 313.245 89.3309C314.805 89.3309 316.245 89.0309 317.565 88.4309C318.885 87.8009 320.085 86.8559 321.165 85.5959L325.845 89.9159C324.345 91.7459 322.485 93.1409 320.265 94.1009C318.075 95.0609 315.6 95.5409 312.84 95.5409Z"/>
<path d="M330.596 95.0009V63.5009H337.841V84.0209L352.871 63.5009H359.711V95.0009H352.511V74.5259L337.481 95.0009H330.596Z"/>
</mask>
<path d="M89.2924 40.0009V8.50094H111.522L111.477 14.4409H94.8274L96.4924 12.7759L96.5374 40.0009H89.2924Z" fill="white"/>
<path d="M127.834 40.5409C125.344 40.5409 123.034 40.1359 120.904 39.3259C118.804 38.5159 116.974 37.3759 115.414 35.9059C113.884 34.4359 112.684 32.7109 111.814 30.7309C110.974 28.7509 110.554 26.5909 110.554 24.2509C110.554 21.9109 110.974 19.7509 111.814 17.7709C112.684 15.7909 113.899 14.0659 115.459 12.5959C117.019 11.1259 118.849 9.98594 120.949 9.17594C123.049 8.36594 125.329 7.96094 127.789 7.96094C130.279 7.96094 132.559 8.36594 134.629 9.17594C136.729 9.98594 138.544 11.1259 140.074 12.5959C141.634 14.0659 142.849 15.7909 143.719 17.7709C144.589 19.7209 145.024 21.8809 145.024 24.2509C145.024 26.5909 144.589 28.7659 143.719 30.7759C142.849 32.7559 141.634 34.4809 140.074 35.9509C138.544 37.3909 136.729 38.5159 134.629 39.3259C132.559 40.1359 130.294 40.5409 127.834 40.5409ZM127.789 34.3309C129.199 34.3309 130.489 34.0909 131.659 33.6109C132.859 33.1309 133.909 32.4409 134.809 31.5409C135.709 30.6409 136.399 29.5759 136.879 28.3459C137.389 27.1159 137.644 25.7509 137.644 24.2509C137.644 22.7509 137.389 21.3859 136.879 20.1559C136.399 18.9259 135.709 17.8609 134.809 16.9609C133.939 16.0609 132.904 15.3709 131.704 14.8909C130.504 14.4109 129.199 14.1709 127.789 14.1709C126.379 14.1709 125.074 14.4109 123.874 14.8909C122.704 15.3709 121.669 16.0609 120.769 16.9609C119.869 17.8609 119.164 18.9259 118.654 20.1559C118.174 21.3859 117.934 22.7509 117.934 24.2509C117.934 25.7209 118.174 27.0859 118.654 28.3459C119.164 29.5759 119.854 30.6409 120.724 31.5409C121.624 32.4409 122.674 33.1309 123.874 33.6109C125.074 34.0909 126.379 34.3309 127.789 34.3309Z" fill="white"/>
<path d="M150.076 40.4959C149.536 40.4959 148.966 40.4509 148.366 40.3609C147.796 40.2709 147.166 40.1509 146.476 40.0009L146.926 33.8359C147.346 33.9559 147.781 34.0159 148.231 34.0159C149.461 34.0159 150.421 33.5209 151.111 32.5309C151.801 31.5109 152.296 30.0559 152.596 28.1659C152.896 26.2759 153.091 23.9809 153.181 21.2809L153.631 8.50094H177.841V40.0009H170.641V12.7759L172.306 14.4409H158.401L159.886 12.6859L159.616 21.0109C159.526 24.1009 159.316 26.8459 158.986 29.2459C158.656 31.6459 158.146 33.6859 157.456 35.3659C156.766 37.0459 155.821 38.3209 154.621 39.1909C153.421 40.0609 151.906 40.4959 150.076 40.4959Z" fill="white"/>
<path d="M186.788 34.0609C188.528 34.5709 189.983 34.7209 191.153 34.5109C192.353 34.2709 193.418 33.4309 194.348 31.9909L195.878 29.6959L196.553 28.9309L206.993 8.50094H214.148L200.738 33.4309C199.538 35.6809 198.113 37.4059 196.463 38.6059C194.843 39.8059 193.058 40.4809 191.108 40.6309C189.158 40.8109 187.133 40.4659 185.033 39.5959L186.788 34.0609ZM196.418 35.0059L182.198 8.50094H189.983L200.423 29.6509L196.418 35.0059Z" fill="white"/>
<path d="M217.613 40.0009V8.50094H243.038V14.3059H224.858V20.7859H233.588C237.398 20.7859 240.293 21.5809 242.273 23.1709C244.283 24.7609 245.288 27.0709 245.288 30.1009C245.288 33.2209 244.178 35.6509 241.958 37.3909C239.738 39.1309 236.603 40.0009 232.553 40.0009H217.613ZM224.858 34.6009H232.148C234.008 34.6009 235.433 34.2409 236.423 33.5209C237.413 32.7709 237.908 31.6909 237.908 30.2809C237.908 27.5209 235.988 26.1409 232.148 26.1409H224.858V34.6009Z" fill="white"/>
<path d="M250.835 40.0009V8.50094H258.08V29.0209L273.11 8.50094H279.95V40.0009H272.75V19.5259L257.72 40.0009H250.835Z" fill="white"/>
<path d="M22.2758 95.0009V63.5009H36.9458C40.6058 63.5009 43.4558 64.2059 45.4958 65.6159C47.5358 67.0259 48.5558 69.0359 48.5558 71.6459C48.5558 74.2259 47.5958 76.2359 45.6758 77.6759C43.7558 79.0859 41.2058 79.7909 38.0258 79.7909L38.8808 77.9009C42.4208 77.9009 45.1658 78.6059 47.1158 80.0159C49.0658 81.4259 50.0408 83.4659 50.0408 86.1359C50.0408 88.8959 48.9908 91.0709 46.8908 92.6609C44.8208 94.2209 41.7908 95.0009 37.8008 95.0009H22.2758ZM29.5208 89.6009H37.5308C39.2108 89.6009 40.4858 89.2709 41.3558 88.6109C42.2258 87.9509 42.6608 86.9309 42.6608 85.5509C42.6608 84.2309 42.2258 83.2559 41.3558 82.6259C40.4858 81.9659 39.2108 81.6359 37.5308 81.6359H29.5208V89.6009ZM29.5208 76.5509H36.3158C37.9058 76.5509 39.1058 76.2359 39.9158 75.6059C40.7258 74.9459 41.1308 73.9859 41.1308 72.7259C41.1308 71.4659 40.7258 70.5209 39.9158 69.8909C39.1058 69.2309 37.9058 68.9009 36.3158 68.9009H29.5208V76.5509Z" fill="white"/>
<path d="M104.19 95.0009L95.7302 79.8359L101.895 76.2809L112.605 95.0009H104.19ZM90.3752 82.3109V76.2359H100.185V82.3109H90.3752ZM102.3 80.0609L95.5502 79.2509L104.325 63.5009H112.02L102.3 80.0609ZM73.6352 95.0009H65.2202L75.9302 76.2809L82.0952 79.8359L73.6352 95.0009ZM92.5352 95.0009H85.3802V63.5009H92.5352V95.0009ZM87.4952 82.3109H77.6402V76.2359H87.4952V82.3109ZM75.5702 80.0609L65.8052 63.5009H73.5002L82.2302 79.2509L75.5702 80.0609Z" fill="white"/>
<path d="M116.099 95.0009V63.5009H123.344V84.0209L138.374 63.5009H145.214V95.0009H138.014V74.5259L122.984 95.0009H116.099Z" fill="white"/>
<path d="M153.057 95.0009V63.5009H167.727C171.387 63.5009 174.237 64.2059 176.277 65.6159C178.317 67.0259 179.337 69.0359 179.337 71.6459C179.337 74.2259 178.377 76.2359 176.457 77.6759C174.537 79.0859 171.987 79.7909 168.807 79.7909L169.662 77.9009C173.202 77.9009 175.947 78.6059 177.897 80.0159C179.847 81.4259 180.822 83.4659 180.822 86.1359C180.822 88.8959 179.772 91.0709 177.672 92.6609C175.602 94.2209 172.572 95.0009 168.582 95.0009H153.057ZM160.302 89.6009H168.312C169.992 89.6009 171.267 89.2709 172.137 88.6109C173.007 87.9509 173.442 86.9309 173.442 85.5509C173.442 84.2309 173.007 83.2559 172.137 82.6259C171.267 81.9659 169.992 81.6359 168.312 81.6359H160.302V89.6009ZM160.302 76.5509H167.097C168.687 76.5509 169.887 76.2359 170.697 75.6059C171.507 74.9459 171.912 73.9859 171.912 72.7259C171.912 71.4659 171.507 70.5209 170.697 69.8909C169.887 69.2309 168.687 68.9009 167.097 68.9009H160.302V76.5509Z" fill="white"/>
<path d="M201.662 95.5409C199.172 95.5409 196.862 95.1359 194.732 94.3259C192.632 93.5159 190.802 92.3759 189.242 90.9059C187.712 89.4359 186.512 87.7109 185.642 85.7309C184.802 83.7509 184.382 81.5909 184.382 79.2509C184.382 76.9109 184.802 74.7509 185.642 72.7709C186.512 70.7909 187.727 69.0659 189.287 67.5959C190.847 66.1259 192.677 64.9859 194.777 64.1759C196.877 63.3659 199.157 62.9609 201.617 62.9609C204.107 62.9609 206.387 63.3659 208.457 64.1759C210.557 64.9859 212.372 66.1259 213.902 67.5959C215.462 69.0659 216.677 70.7909 217.547 72.7709C218.417 74.7209 218.852 76.8809 218.852 79.2509C218.852 81.5909 218.417 83.7659 217.547 85.7759C216.677 87.7559 215.462 89.4809 213.902 90.9509C212.372 92.3909 210.557 93.5159 208.457 94.3259C206.387 95.1359 204.122 95.5409 201.662 95.5409ZM201.617 89.3309C203.027 89.3309 204.317 89.0909 205.487 88.6109C206.687 88.1309 207.737 87.4409 208.637 86.5409C209.537 85.6409 210.227 84.5759 210.707 83.3459C211.217 82.1159 211.472 80.7509 211.472 79.2509C211.472 77.7509 211.217 76.3859 210.707 75.1559C210.227 73.9259 209.537 72.8609 208.637 71.9609C207.767 71.0609 206.732 70.3709 205.532 69.8909C204.332 69.4109 203.027 69.1709 201.617 69.1709C200.207 69.1709 198.902 69.4109 197.702 69.8909C196.532 70.3709 195.497 71.0609 194.597 71.9609C193.697 72.8609 192.992 73.9259 192.482 75.1559C192.002 76.3859 191.762 77.7509 191.762 79.2509C191.762 80.7209 192.002 82.0859 192.482 83.3459C192.992 84.5759 193.682 85.6409 194.552 86.5409C195.452 87.4409 196.502 88.1309 197.702 88.6109C198.902 89.0909 200.207 89.3309 201.617 89.3309Z" fill="white"/>
<path d="M224.468 95.0009V63.5009H253.178V95.0009H245.933V67.7759L247.598 69.4409H230.048L231.713 67.7759V95.0009H224.468Z" fill="white"/>
<path d="M260.987 95.0009V63.5009H268.232V84.0209L283.262 63.5009H290.102V95.0009H282.902V74.5259L267.872 95.0009H260.987Z" fill="white"/>
<path d="M312.84 95.5409C310.41 95.5409 308.145 95.1509 306.045 94.3709C303.975 93.5609 302.175 92.4209 300.645 90.9509C299.115 89.4809 297.915 87.7559 297.045 85.7759C296.205 83.7959 295.785 81.6209 295.785 79.2509C295.785 76.8809 296.205 74.7059 297.045 72.7259C297.915 70.7459 299.115 69.0209 300.645 67.5509C302.205 66.0809 304.02 64.9559 306.09 64.1759C308.16 63.3659 310.425 62.9609 312.885 62.9609C315.615 62.9609 318.075 63.4409 320.265 64.4009C322.485 65.3309 324.345 66.7109 325.845 68.5409L321.165 72.8609C320.085 71.6309 318.885 70.7159 317.565 70.1159C316.245 69.4859 314.805 69.1709 313.245 69.1709C311.775 69.1709 310.425 69.4109 309.195 69.8909C307.965 70.3709 306.9 71.0609 306 71.9609C305.1 72.8609 304.395 73.9259 303.885 75.1559C303.405 76.3859 303.165 77.7509 303.165 79.2509C303.165 80.7509 303.405 82.1159 303.885 83.3459C304.395 84.5759 305.1 85.6409 306 86.5409C306.9 87.4409 307.965 88.1309 309.195 88.6109C310.425 89.0909 311.775 89.3309 313.245 89.3309C314.805 89.3309 316.245 89.0309 317.565 88.4309C318.885 87.8009 320.085 86.8559 321.165 85.5959L325.845 89.9159C324.345 91.7459 322.485 93.1409 320.265 94.1009C318.075 95.0609 315.6 95.5409 312.84 95.5409Z" fill="white"/>
<path d="M330.596 95.0009V63.5009H337.841V84.0209L352.871 63.5009H359.711V95.0009H352.511V74.5259L337.481 95.0009H330.596Z" fill="white"/>
<path d="M89.2924 40.0009V8.50094H111.522L111.477 14.4409H94.8274L96.4924 12.7759L96.5374 40.0009H89.2924Z" stroke="#2A335C" stroke-width="4" mask="url(#path-1-outside-1_251_1106)"/>
<path d="M127.834 40.5409C125.344 40.5409 123.034 40.1359 120.904 39.3259C118.804 38.5159 116.974 37.3759 115.414 35.9059C113.884 34.4359 112.684 32.7109 111.814 30.7309C110.974 28.7509 110.554 26.5909 110.554 24.2509C110.554 21.9109 110.974 19.7509 111.814 17.7709C112.684 15.7909 113.899 14.0659 115.459 12.5959C117.019 11.1259 118.849 9.98594 120.949 9.17594C123.049 8.36594 125.329 7.96094 127.789 7.96094C130.279 7.96094 132.559 8.36594 134.629 9.17594C136.729 9.98594 138.544 11.1259 140.074 12.5959C141.634 14.0659 142.849 15.7909 143.719 17.7709C144.589 19.7209 145.024 21.8809 145.024 24.2509C145.024 26.5909 144.589 28.7659 143.719 30.7759C142.849 32.7559 141.634 34.4809 140.074 35.9509C138.544 37.3909 136.729 38.5159 134.629 39.3259C132.559 40.1359 130.294 40.5409 127.834 40.5409ZM127.789 34.3309C129.199 34.3309 130.489 34.0909 131.659 33.6109C132.859 33.1309 133.909 32.4409 134.809 31.5409C135.709 30.6409 136.399 29.5759 136.879 28.3459C137.389 27.1159 137.644 25.7509 137.644 24.2509C137.644 22.7509 137.389 21.3859 136.879 20.1559C136.399 18.9259 135.709 17.8609 134.809 16.9609C133.939 16.0609 132.904 15.3709 131.704 14.8909C130.504 14.4109 129.199 14.1709 127.789 14.1709C126.379 14.1709 125.074 14.4109 123.874 14.8909C122.704 15.3709 121.669 16.0609 120.769 16.9609C119.869 17.8609 119.164 18.9259 118.654 20.1559C118.174 21.3859 117.934 22.7509 117.934 24.2509C117.934 25.7209 118.174 27.0859 118.654 28.3459C119.164 29.5759 119.854 30.6409 120.724 31.5409C121.624 32.4409 122.674 33.1309 123.874 33.6109C125.074 34.0909 126.379 34.3309 127.789 34.3309Z" stroke="#2A335C" stroke-width="4" mask="url(#path-1-outside-1_251_1106)"/>
<path d="M150.076 40.4959C149.536 40.4959 148.966 40.4509 148.366 40.3609C147.796 40.2709 147.166 40.1509 146.476 40.0009L146.926 33.8359C147.346 33.9559 147.781 34.0159 148.231 34.0159C149.461 34.0159 150.421 33.5209 151.111 32.5309C151.801 31.5109 152.296 30.0559 152.596 28.1659C152.896 26.2759 153.091 23.9809 153.181 21.2809L153.631 8.50094H177.841V40.0009H170.641V12.7759L172.306 14.4409H158.401L159.886 12.6859L159.616 21.0109C159.526 24.1009 159.316 26.8459 158.986 29.2459C158.656 31.6459 158.146 33.6859 157.456 35.3659C156.766 37.0459 155.821 38.3209 154.621 39.1909C153.421 40.0609 151.906 40.4959 150.076 40.4959Z" stroke="#2A335C" stroke-width="4" mask="url(#path-1-outside-1_251_1106)"/>
<path d="M186.788 34.0609C188.528 34.5709 189.983 34.7209 191.153 34.5109C192.353 34.2709 193.418 33.4309 194.348 31.9909L195.878 29.6959L196.553 28.9309L206.993 8.50094H214.148L200.738 33.4309C199.538 35.6809 198.113 37.4059 196.463 38.6059C194.843 39.8059 193.058 40.4809 191.108 40.6309C189.158 40.8109 187.133 40.4659 185.033 39.5959L186.788 34.0609ZM196.418 35.0059L182.198 8.50094H189.983L200.423 29.6509L196.418 35.0059Z" stroke="#2A335C" stroke-width="4" mask="url(#path-1-outside-1_251_1106)"/>
<path d="M217.613 40.0009V8.50094H243.038V14.3059H224.858V20.7859H233.588C237.398 20.7859 240.293 21.5809 242.273 23.1709C244.283 24.7609 245.288 27.0709 245.288 30.1009C245.288 33.2209 244.178 35.6509 241.958 37.3909C239.738 39.1309 236.603 40.0009 232.553 40.0009H217.613ZM224.858 34.6009H232.148C234.008 34.6009 235.433 34.2409 236.423 33.5209C237.413 32.7709 237.908 31.6909 237.908 30.2809C237.908 27.5209 235.988 26.1409 232.148 26.1409H224.858V34.6009Z" stroke="#2A335C" stroke-width="4" mask="url(#path-1-outside-1_251_1106)"/>
<path d="M250.835 40.0009V8.50094H258.08V29.0209L273.11 8.50094H279.95V40.0009H272.75V19.5259L257.72 40.0009H250.835Z" stroke="#2A335C" stroke-width="4" mask="url(#path-1-outside-1_251_1106)"/>
<path d="M22.2758 95.0009V63.5009H36.9458C40.6058 63.5009 43.4558 64.2059 45.4958 65.6159C47.5358 67.0259 48.5558 69.0359 48.5558 71.6459C48.5558 74.2259 47.5958 76.2359 45.6758 77.6759C43.7558 79.0859 41.2058 79.7909 38.0258 79.7909L38.8808 77.9009C42.4208 77.9009 45.1658 78.6059 47.1158 80.0159C49.0658 81.4259 50.0408 83.4659 50.0408 86.1359C50.0408 88.8959 48.9908 91.0709 46.8908 92.6609C44.8208 94.2209 41.7908 95.0009 37.8008 95.0009H22.2758ZM29.5208 89.6009H37.5308C39.2108 89.6009 40.4858 89.2709 41.3558 88.6109C42.2258 87.9509 42.6608 86.9309 42.6608 85.5509C42.6608 84.2309 42.2258 83.2559 41.3558 82.6259C40.4858 81.9659 39.2108 81.6359 37.5308 81.6359H29.5208V89.6009ZM29.5208 76.5509H36.3158C37.9058 76.5509 39.1058 76.2359 39.9158 75.6059C40.7258 74.9459 41.1308 73.9859 41.1308 72.7259C41.1308 71.4659 40.7258 70.5209 39.9158 69.8909C39.1058 69.2309 37.9058 68.9009 36.3158 68.9009H29.5208V76.5509Z" stroke="#2A335C" stroke-width="4" mask="url(#path-1-outside-1_251_1106)"/>
<path d="M104.19 95.0009L95.7302 79.8359L101.895 76.2809L112.605 95.0009H104.19ZM90.3752 82.3109V76.2359H100.185V82.3109H90.3752ZM102.3 80.0609L95.5502 79.2509L104.325 63.5009H112.02L102.3 80.0609ZM73.6352 95.0009H65.2202L75.9302 76.2809L82.0952 79.8359L73.6352 95.0009ZM92.5352 95.0009H85.3802V63.5009H92.5352V95.0009ZM87.4952 82.3109H77.6402V76.2359H87.4952V82.3109ZM75.5702 80.0609L65.8052 63.5009H73.5002L82.2302 79.2509L75.5702 80.0609Z" stroke="#2A335C" stroke-width="4" mask="url(#path-1-outside-1_251_1106)"/>
<path d="M116.099 95.0009V63.5009H123.344V84.0209L138.374 63.5009H145.214V95.0009H138.014V74.5259L122.984 95.0009H116.099Z" stroke="#2A335C" stroke-width="4" mask="url(#path-1-outside-1_251_1106)"/>
<path d="M153.057 95.0009V63.5009H167.727C171.387 63.5009 174.237 64.2059 176.277 65.6159C178.317 67.0259 179.337 69.0359 179.337 71.6459C179.337 74.2259 178.377 76.2359 176.457 77.6759C174.537 79.0859 171.987 79.7909 168.807 79.7909L169.662 77.9009C173.202 77.9009 175.947 78.6059 177.897 80.0159C179.847 81.4259 180.822 83.4659 180.822 86.1359C180.822 88.8959 179.772 91.0709 177.672 92.6609C175.602 94.2209 172.572 95.0009 168.582 95.0009H153.057ZM160.302 89.6009H168.312C169.992 89.6009 171.267 89.2709 172.137 88.6109C173.007 87.9509 173.442 86.9309 173.442 85.5509C173.442 84.2309 173.007 83.2559 172.137 82.6259C171.267 81.9659 169.992 81.6359 168.312 81.6359H160.302V89.6009ZM160.302 76.5509H167.097C168.687 76.5509 169.887 76.2359 170.697 75.6059C171.507 74.9459 171.912 73.9859 171.912 72.7259C171.912 71.4659 171.507 70.5209 170.697 69.8909C169.887 69.2309 168.687 68.9009 167.097 68.9009H160.302V76.5509Z" stroke="#2A335C" stroke-width="4" mask="url(#path-1-outside-1_251_1106)"/>
<path d="M201.662 95.5409C199.172 95.5409 196.862 95.1359 194.732 94.3259C192.632 93.5159 190.802 92.3759 189.242 90.9059C187.712 89.4359 186.512 87.7109 185.642 85.7309C184.802 83.7509 184.382 81.5909 184.382 79.2509C184.382 76.9109 184.802 74.7509 185.642 72.7709C186.512 70.7909 187.727 69.0659 189.287 67.5959C190.847 66.1259 192.677 64.9859 194.777 64.1759C196.877 63.3659 199.157 62.9609 201.617 62.9609C204.107 62.9609 206.387 63.3659 208.457 64.1759C210.557 64.9859 212.372 66.1259 213.902 67.5959C215.462 69.0659 216.677 70.7909 217.547 72.7709C218.417 74.7209 218.852 76.8809 218.852 79.2509C218.852 81.5909 218.417 83.7659 217.547 85.7759C216.677 87.7559 215.462 89.4809 213.902 90.9509C212.372 92.3909 210.557 93.5159 208.457 94.3259C206.387 95.1359 204.122 95.5409 201.662 95.5409ZM201.617 89.3309C203.027 89.3309 204.317 89.0909 205.487 88.6109C206.687 88.1309 207.737 87.4409 208.637 86.5409C209.537 85.6409 210.227 84.5759 210.707 83.3459C211.217 82.1159 211.472 80.7509 211.472 79.2509C211.472 77.7509 211.217 76.3859 210.707 75.1559C210.227 73.9259 209.537 72.8609 208.637 71.9609C207.767 71.0609 206.732 70.3709 205.532 69.8909C204.332 69.4109 203.027 69.1709 201.617 69.1709C200.207 69.1709 198.902 69.4109 197.702 69.8909C196.532 70.3709 195.497 71.0609 194.597 71.9609C193.697 72.8609 192.992 73.9259 192.482 75.1559C192.002 76.3859 191.762 77.7509 191.762 79.2509C191.762 80.7209 192.002 82.0859 192.482 83.3459C192.992 84.5759 193.682 85.6409 194.552 86.5409C195.452 87.4409 196.502 88.1309 197.702 88.6109C198.902 89.0909 200.207 89.3309 201.617 89.3309Z" stroke="#2A335C" stroke-width="4" mask="url(#path-1-outside-1_251_1106)"/>
<path d="M224.468 95.0009V63.5009H253.178V95.0009H245.933V67.7759L247.598 69.4409H230.048L231.713 67.7759V95.0009H224.468Z" stroke="#2A335C" stroke-width="4" mask="url(#path-1-outside-1_251_1106)"/>
<path d="M260.987 95.0009V63.5009H268.232V84.0209L283.262 63.5009H290.102V95.0009H282.902V74.5259L267.872 95.0009H260.987Z" stroke="#2A335C" stroke-width="4" mask="url(#path-1-outside-1_251_1106)"/>
<path d="M312.84 95.5409C310.41 95.5409 308.145 95.1509 306.045 94.3709C303.975 93.5609 302.175 92.4209 300.645 90.9509C299.115 89.4809 297.915 87.7559 297.045 85.7759C296.205 83.7959 295.785 81.6209 295.785 79.2509C295.785 76.8809 296.205 74.7059 297.045 72.7259C297.915 70.7459 299.115 69.0209 300.645 67.5509C302.205 66.0809 304.02 64.9559 306.09 64.1759C308.16 63.3659 310.425 62.9609 312.885 62.9609C315.615 62.9609 318.075 63.4409 320.265 64.4009C322.485 65.3309 324.345 66.7109 325.845 68.5409L321.165 72.8609C320.085 71.6309 318.885 70.7159 317.565 70.1159C316.245 69.4859 314.805 69.1709 313.245 69.1709C311.775 69.1709 310.425 69.4109 309.195 69.8909C307.965 70.3709 306.9 71.0609 306 71.9609C305.1 72.8609 304.395 73.9259 303.885 75.1559C303.405 76.3859 303.165 77.7509 303.165 79.2509C303.165 80.7509 303.405 82.1159 303.885 83.3459C304.395 84.5759 305.1 85.6409 306 86.5409C306.9 87.4409 307.965 88.1309 309.195 88.6109C310.425 89.0909 311.775 89.3309 313.245 89.3309C314.805 89.3309 316.245 89.0309 317.565 88.4309C318.885 87.8009 320.085 86.8559 321.165 85.5959L325.845 89.9159C324.345 91.7459 322.485 93.1409 320.265 94.1009C318.075 95.0609 315.6 95.5409 312.84 95.5409Z" stroke="#2A335C" stroke-width="4" mask="url(#path-1-outside-1_251_1106)"/>
<path d="M330.596 95.0009V63.5009H337.841V84.0209L352.871 63.5009H359.711V95.0009H352.511V74.5259L337.481 95.0009H330.596Z" stroke="#2A335C" stroke-width="4" mask="url(#path-1-outside-1_251_1106)"/>
</g>
<defs>
<filter id="filter0_d_251_1106" x="0.275818" y="0.960938" width="381.435" height="131.58" filterUnits="userSpaceOnUse" color-interpolation-filters="sRGB">
<feFlood flood-opacity="0" result="BackgroundImageFix"/>
<feColorMatrix in="SourceAlpha" type="matrix" values="0 0 0 0 0 0 0 0 0 0 0 0 0 0 0 0 0 0 127 0" result="hardAlpha"/>
<feOffset dy="15"/>
<feGaussianBlur stdDeviation="10"/>
<feColorMatrix type="matrix" values="0 0 0 0 0 0 0 0 0 0 0 0 0 0 0 0 0 0 0.05 0"/>
<feBlend mode="normal" in2="BackgroundImageFix" result="effect1_dropShadow_251_1106"/>
<feBlend mode="normal" in="SourceGraphic" in2="effect1_dropShadow_251_1106" result="shape"/>
</filter>
</defs>
</svg>
