<svg width="357" height="132" viewBox="0 0 357 132" fill="none" xmlns="http://www.w3.org/2000/svg">
<g filter="url(#filter0_d_251_1107)">
<mask id="path-1-outside-1_251_1107" maskUnits="userSpaceOnUse" x="20.2783" y="5.5" width="317" height="92" fill="black">
<rect fill="white" x="20.2783" y="5.5" width="317" height="92"/>
<path d="M22.2783 39V7.5H50.9883V39H43.7433V11.775L45.4083 13.44H27.8583L29.5233 11.775V39H22.2783Z"/>
<path d="M55.2418 39L69.2818 7.5H76.4818L90.5668 39H82.9168L71.3968 11.19H74.2768L62.7118 39H55.2418ZM62.2618 32.25L64.1968 26.715H80.3968L82.3768 32.25H62.2618Z"/>
<path d="M94.7441 39V7.5H100.774L114.184 29.73H110.989L124.174 7.5H130.204L130.249 39H123.409L123.364 17.985H124.669L114.094 35.67H110.854L100.054 17.985H101.584V39H94.7441Z"/>
<path d="M156.029 39V29.055L157.829 30.63H149.189C146.459 30.63 144.104 30.18 142.124 29.28C140.144 28.38 138.629 27.075 137.579 25.365C136.529 23.655 136.004 21.615 136.004 19.245C136.004 16.785 136.559 14.685 137.669 12.945C138.809 11.175 140.399 9.825 142.439 8.895C144.479 7.965 146.879 7.5 149.639 7.5H163.229V39H156.029ZM136.094 39L143.924 27.705H151.304L143.789 39H136.094ZM156.029 26.715V11.55L157.829 13.44H149.819C147.749 13.44 146.159 13.92 145.049 14.88C143.969 15.84 143.429 17.265 143.429 19.155C143.429 20.985 143.954 22.395 145.004 23.385C146.054 24.375 147.599 24.87 149.639 24.87H157.829L156.029 26.715Z"/>
<path d="M177.916 39V11.775L179.581 13.44H167.881V7.5H195.196V13.44H183.496L185.116 11.775V39H177.916Z"/>
<path d="M221.373 7.5H228.663V39H221.373V7.5ZM207.063 39H199.773V7.5H207.063V39ZM221.913 26.085H206.523V19.92H221.913V26.085Z"/>
<path d="M236.556 39V7.5H243.801V28.02L258.831 7.5H265.671V39H258.471V18.525L243.441 39H236.556Z"/>
<path d="M293.899 39L284.089 23.835L289.984 20.28L302.179 39H293.899ZM273.424 39V7.5H280.669V39H273.424ZM278.554 26.31V20.235H289.534V26.31H278.554ZM290.659 24.06L283.954 23.25L294.169 7.5H301.864L290.659 24.06Z"/>
<path d="M305.594 39V7.5H312.839V28.02L327.869 7.5H334.709V39H327.509V18.525L312.479 39H305.594Z"/>
<path d="M64.0483 94V62.5H86.2783L86.2333 68.44H69.5833L71.2483 66.775L71.2933 94H64.0483Z"/>
<path d="M102.59 94.54C100.1 94.54 97.7901 94.135 95.6601 93.325C93.5601 92.515 91.7301 91.375 90.1701 89.905C88.6401 88.435 87.4401 86.71 86.5701 84.73C85.7301 82.75 85.3101 80.59 85.3101 78.25C85.3101 75.91 85.7301 73.75 86.5701 71.77C87.4401 69.79 88.6551 68.065 90.2151 66.595C91.7751 65.125 93.6051 63.985 95.7051 63.175C97.8051 62.365 100.085 61.96 102.545 61.96C105.035 61.96 107.315 62.365 109.385 63.175C111.485 63.985 113.3 65.125 114.83 66.595C116.39 68.065 117.605 69.79 118.475 71.77C119.345 73.72 119.78 75.88 119.78 78.25C119.78 80.59 119.345 82.765 118.475 84.775C117.605 86.755 116.39 88.48 114.83 89.95C113.3 91.39 111.485 92.515 109.385 93.325C107.315 94.135 105.05 94.54 102.59 94.54ZM102.545 88.33C103.955 88.33 105.245 88.09 106.415 87.61C107.615 87.13 108.665 86.44 109.565 85.54C110.465 84.64 111.155 83.575 111.635 82.345C112.145 81.115 112.4 79.75 112.4 78.25C112.4 76.75 112.145 75.385 111.635 74.155C111.155 72.925 110.465 71.86 109.565 70.96C108.695 70.06 107.66 69.37 106.46 68.89C105.26 68.41 103.955 68.17 102.545 68.17C101.135 68.17 99.8301 68.41 98.6301 68.89C97.4601 69.37 96.4251 70.06 95.5251 70.96C94.6251 71.86 93.9201 72.925 93.4101 74.155C92.9301 75.385 92.6901 76.75 92.6901 78.25C92.6901 79.72 92.9301 81.085 93.4101 82.345C93.9201 83.575 94.6101 84.64 95.4801 85.54C96.3801 86.44 97.4301 87.13 98.6301 87.61C99.8301 88.09 101.135 88.33 102.545 88.33Z"/>
<path d="M124.832 94.495C124.292 94.495 123.722 94.45 123.122 94.36C122.552 94.27 121.922 94.15 121.232 94L121.682 87.835C122.102 87.955 122.537 88.015 122.987 88.015C124.217 88.015 125.177 87.52 125.867 86.53C126.557 85.51 127.052 84.055 127.352 82.165C127.652 80.275 127.847 77.98 127.937 75.28L128.387 62.5H152.597V94H145.397V66.775L147.062 68.44H133.157L134.642 66.685L134.372 75.01C134.282 78.1 134.072 80.845 133.742 83.245C133.412 85.645 132.902 87.685 132.212 89.365C131.522 91.045 130.577 92.32 129.377 93.19C128.177 94.06 126.662 94.495 124.832 94.495Z"/>
<path d="M161.544 88.06C163.284 88.57 164.739 88.72 165.909 88.51C167.109 88.27 168.174 87.43 169.104 85.99L170.634 83.695L171.309 82.93L181.749 62.5H188.904L175.494 87.43C174.294 89.68 172.869 91.405 171.219 92.605C169.599 93.805 167.814 94.48 165.864 94.63C163.914 94.81 161.889 94.465 159.789 93.595L161.544 88.06ZM171.174 89.005L156.954 62.5H164.739L175.179 83.65L171.174 89.005Z"/>
<path d="M192.369 94V62.5H217.794V68.305H199.614V74.785H208.344C212.154 74.785 215.049 75.58 217.029 77.17C219.039 78.76 220.044 81.07 220.044 84.1C220.044 87.22 218.934 89.65 216.714 91.39C214.494 93.13 211.359 94 207.309 94H192.369ZM199.614 88.6H206.904C208.764 88.6 210.189 88.24 211.179 87.52C212.169 86.77 212.664 85.69 212.664 84.28C212.664 81.52 210.744 80.14 206.904 80.14H199.614V88.6Z"/>
<path d="M242.36 94V84.055L244.16 85.63H235.52C232.79 85.63 230.435 85.18 228.455 84.28C226.475 83.38 224.96 82.075 223.91 80.365C222.86 78.655 222.335 76.615 222.335 74.245C222.335 71.785 222.89 69.685 224 67.945C225.14 66.175 226.73 64.825 228.77 63.895C230.81 62.965 233.21 62.5 235.97 62.5H249.56V94H242.36ZM222.425 94L230.255 82.705H237.635L230.12 94H222.425ZM242.36 81.715V66.55L244.16 68.44H236.15C234.08 68.44 232.49 68.92 231.38 69.88C230.3 70.84 229.76 72.265 229.76 74.155C229.76 75.985 230.285 77.395 231.335 78.385C232.385 79.375 233.93 79.87 235.97 79.87H244.16L242.36 81.715Z"/>
<path d="M257.452 94V62.5H263.482L276.892 84.73H273.697L286.882 62.5H292.912L292.957 94H286.117L286.072 72.985H287.377L276.802 90.67H273.562L262.762 72.985H264.292V94H257.452Z"/>
</mask>
<path d="M22.2783 39V7.5H50.9883V39H43.7433V11.775L45.4083 13.44H27.8583L29.5233 11.775V39H22.2783Z" fill="white"/>
<path d="M55.2418 39L69.2818 7.5H76.4818L90.5668 39H82.9168L71.3968 11.19H74.2768L62.7118 39H55.2418ZM62.2618 32.25L64.1968 26.715H80.3968L82.3768 32.25H62.2618Z" fill="white"/>
<path d="M94.7441 39V7.5H100.774L114.184 29.73H110.989L124.174 7.5H130.204L130.249 39H123.409L123.364 17.985H124.669L114.094 35.67H110.854L100.054 17.985H101.584V39H94.7441Z" fill="white"/>
<path d="M156.029 39V29.055L157.829 30.63H149.189C146.459 30.63 144.104 30.18 142.124 29.28C140.144 28.38 138.629 27.075 137.579 25.365C136.529 23.655 136.004 21.615 136.004 19.245C136.004 16.785 136.559 14.685 137.669 12.945C138.809 11.175 140.399 9.825 142.439 8.895C144.479 7.965 146.879 7.5 149.639 7.5H163.229V39H156.029ZM136.094 39L143.924 27.705H151.304L143.789 39H136.094ZM156.029 26.715V11.55L157.829 13.44H149.819C147.749 13.44 146.159 13.92 145.049 14.88C143.969 15.84 143.429 17.265 143.429 19.155C143.429 20.985 143.954 22.395 145.004 23.385C146.054 24.375 147.599 24.87 149.639 24.87H157.829L156.029 26.715Z" fill="white"/>
<path d="M177.916 39V11.775L179.581 13.44H167.881V7.5H195.196V13.44H183.496L185.116 11.775V39H177.916Z" fill="white"/>
<path d="M221.373 7.5H228.663V39H221.373V7.5ZM207.063 39H199.773V7.5H207.063V39ZM221.913 26.085H206.523V19.92H221.913V26.085Z" fill="white"/>
<path d="M236.556 39V7.5H243.801V28.02L258.831 7.5H265.671V39H258.471V18.525L243.441 39H236.556Z" fill="white"/>
<path d="M293.899 39L284.089 23.835L289.984 20.28L302.179 39H293.899ZM273.424 39V7.5H280.669V39H273.424ZM278.554 26.31V20.235H289.534V26.31H278.554ZM290.659 24.06L283.954 23.25L294.169 7.5H301.864L290.659 24.06Z" fill="white"/>
<path d="M305.594 39V7.5H312.839V28.02L327.869 7.5H334.709V39H327.509V18.525L312.479 39H305.594Z" fill="white"/>
<path d="M64.0483 94V62.5H86.2783L86.2333 68.44H69.5833L71.2483 66.775L71.2933 94H64.0483Z" fill="white"/>
<path d="M102.59 94.54C100.1 94.54 97.7901 94.135 95.6601 93.325C93.5601 92.515 91.7301 91.375 90.1701 89.905C88.6401 88.435 87.4401 86.71 86.5701 84.73C85.7301 82.75 85.3101 80.59 85.3101 78.25C85.3101 75.91 85.7301 73.75 86.5701 71.77C87.4401 69.79 88.6551 68.065 90.2151 66.595C91.7751 65.125 93.6051 63.985 95.7051 63.175C97.8051 62.365 100.085 61.96 102.545 61.96C105.035 61.96 107.315 62.365 109.385 63.175C111.485 63.985 113.3 65.125 114.83 66.595C116.39 68.065 117.605 69.79 118.475 71.77C119.345 73.72 119.78 75.88 119.78 78.25C119.78 80.59 119.345 82.765 118.475 84.775C117.605 86.755 116.39 88.48 114.83 89.95C113.3 91.39 111.485 92.515 109.385 93.325C107.315 94.135 105.05 94.54 102.59 94.54ZM102.545 88.33C103.955 88.33 105.245 88.09 106.415 87.61C107.615 87.13 108.665 86.44 109.565 85.54C110.465 84.64 111.155 83.575 111.635 82.345C112.145 81.115 112.4 79.75 112.4 78.25C112.4 76.75 112.145 75.385 111.635 74.155C111.155 72.925 110.465 71.86 109.565 70.96C108.695 70.06 107.66 69.37 106.46 68.89C105.26 68.41 103.955 68.17 102.545 68.17C101.135 68.17 99.8301 68.41 98.6301 68.89C97.4601 69.37 96.4251 70.06 95.5251 70.96C94.6251 71.86 93.9201 72.925 93.4101 74.155C92.9301 75.385 92.6901 76.75 92.6901 78.25C92.6901 79.72 92.9301 81.085 93.4101 82.345C93.9201 83.575 94.6101 84.64 95.4801 85.54C96.3801 86.44 97.4301 87.13 98.6301 87.61C99.8301 88.09 101.135 88.33 102.545 88.33Z" fill="white"/>
<path d="M124.832 94.495C124.292 94.495 123.722 94.45 123.122 94.36C122.552 94.27 121.922 94.15 121.232 94L121.682 87.835C122.102 87.955 122.537 88.015 122.987 88.015C124.217 88.015 125.177 87.52 125.867 86.53C126.557 85.51 127.052 84.055 127.352 82.165C127.652 80.275 127.847 77.98 127.937 75.28L128.387 62.5H152.597V94H145.397V66.775L147.062 68.44H133.157L134.642 66.685L134.372 75.01C134.282 78.1 134.072 80.845 133.742 83.245C133.412 85.645 132.902 87.685 132.212 89.365C131.522 91.045 130.577 92.32 129.377 93.19C128.177 94.06 126.662 94.495 124.832 94.495Z" fill="white"/>
<path d="M161.544 88.06C163.284 88.57 164.739 88.72 165.909 88.51C167.109 88.27 168.174 87.43 169.104 85.99L170.634 83.695L171.309 82.93L181.749 62.5H188.904L175.494 87.43C174.294 89.68 172.869 91.405 171.219 92.605C169.599 93.805 167.814 94.48 165.864 94.63C163.914 94.81 161.889 94.465 159.789 93.595L161.544 88.06ZM171.174 89.005L156.954 62.5H164.739L175.179 83.65L171.174 89.005Z" fill="white"/>
<path d="M192.369 94V62.5H217.794V68.305H199.614V74.785H208.344C212.154 74.785 215.049 75.58 217.029 77.17C219.039 78.76 220.044 81.07 220.044 84.1C220.044 87.22 218.934 89.65 216.714 91.39C214.494 93.13 211.359 94 207.309 94H192.369ZM199.614 88.6H206.904C208.764 88.6 210.189 88.24 211.179 87.52C212.169 86.77 212.664 85.69 212.664 84.28C212.664 81.52 210.744 80.14 206.904 80.14H199.614V88.6Z" fill="white"/>
<path d="M242.36 94V84.055L244.16 85.63H235.52C232.79 85.63 230.435 85.18 228.455 84.28C226.475 83.38 224.96 82.075 223.91 80.365C222.86 78.655 222.335 76.615 222.335 74.245C222.335 71.785 222.89 69.685 224 67.945C225.14 66.175 226.73 64.825 228.77 63.895C230.81 62.965 233.21 62.5 235.97 62.5H249.56V94H242.36ZM222.425 94L230.255 82.705H237.635L230.12 94H222.425ZM242.36 81.715V66.55L244.16 68.44H236.15C234.08 68.44 232.49 68.92 231.38 69.88C230.3 70.84 229.76 72.265 229.76 74.155C229.76 75.985 230.285 77.395 231.335 78.385C232.385 79.375 233.93 79.87 235.97 79.87H244.16L242.36 81.715Z" fill="white"/>
<path d="M257.452 94V62.5H263.482L276.892 84.73H273.697L286.882 62.5H292.912L292.957 94H286.117L286.072 72.985H287.377L276.802 90.67H273.562L262.762 72.985H264.292V94H257.452Z" fill="white"/>
<path d="M22.2783 39V7.5H50.9883V39H43.7433V11.775L45.4083 13.44H27.8583L29.5233 11.775V39H22.2783Z" stroke="#2A335C" stroke-width="4" mask="url(#path-1-outside-1_251_1107)"/>
<path d="M55.2418 39L69.2818 7.5H76.4818L90.5668 39H82.9168L71.3968 11.19H74.2768L62.7118 39H55.2418ZM62.2618 32.25L64.1968 26.715H80.3968L82.3768 32.25H62.2618Z" stroke="#2A335C" stroke-width="4" mask="url(#path-1-outside-1_251_1107)"/>
<path d="M94.7441 39V7.5H100.774L114.184 29.73H110.989L124.174 7.5H130.204L130.249 39H123.409L123.364 17.985H124.669L114.094 35.67H110.854L100.054 17.985H101.584V39H94.7441Z" stroke="#2A335C" stroke-width="4" mask="url(#path-1-outside-1_251_1107)"/>
<path d="M156.029 39V29.055L157.829 30.63H149.189C146.459 30.63 144.104 30.18 142.124 29.28C140.144 28.38 138.629 27.075 137.579 25.365C136.529 23.655 136.004 21.615 136.004 19.245C136.004 16.785 136.559 14.685 137.669 12.945C138.809 11.175 140.399 9.825 142.439 8.895C144.479 7.965 146.879 7.5 149.639 7.5H163.229V39H156.029ZM136.094 39L143.924 27.705H151.304L143.789 39H136.094ZM156.029 26.715V11.55L157.829 13.44H149.819C147.749 13.44 146.159 13.92 145.049 14.88C143.969 15.84 143.429 17.265 143.429 19.155C143.429 20.985 143.954 22.395 145.004 23.385C146.054 24.375 147.599 24.87 149.639 24.87H157.829L156.029 26.715Z" stroke="#2A335C" stroke-width="4" mask="url(#path-1-outside-1_251_1107)"/>
<path d="M177.916 39V11.775L179.581 13.44H167.881V7.5H195.196V13.44H183.496L185.116 11.775V39H177.916Z" stroke="#2A335C" stroke-width="4" mask="url(#path-1-outside-1_251_1107)"/>
<path d="M221.373 7.5H228.663V39H221.373V7.5ZM207.063 39H199.773V7.5H207.063V39ZM221.913 26.085H206.523V19.92H221.913V26.085Z" stroke="#2A335C" stroke-width="4" mask="url(#path-1-outside-1_251_1107)"/>
<path d="M236.556 39V7.5H243.801V28.02L258.831 7.5H265.671V39H258.471V18.525L243.441 39H236.556Z" stroke="#2A335C" stroke-width="4" mask="url(#path-1-outside-1_251_1107)"/>
<path d="M293.899 39L284.089 23.835L289.984 20.28L302.179 39H293.899ZM273.424 39V7.5H280.669V39H273.424ZM278.554 26.31V20.235H289.534V26.31H278.554ZM290.659 24.06L283.954 23.25L294.169 7.5H301.864L290.659 24.06Z" stroke="#2A335C" stroke-width="4" mask="url(#path-1-outside-1_251_1107)"/>
<path d="M305.594 39V7.5H312.839V28.02L327.869 7.5H334.709V39H327.509V18.525L312.479 39H305.594Z" stroke="#2A335C" stroke-width="4" mask="url(#path-1-outside-1_251_1107)"/>
<path d="M64.0483 94V62.5H86.2783L86.2333 68.44H69.5833L71.2483 66.775L71.2933 94H64.0483Z" stroke="#2A335C" stroke-width="4" mask="url(#path-1-outside-1_251_1107)"/>
<path d="M102.59 94.54C100.1 94.54 97.7901 94.135 95.6601 93.325C93.5601 92.515 91.7301 91.375 90.1701 89.905C88.6401 88.435 87.4401 86.71 86.5701 84.73C85.7301 82.75 85.3101 80.59 85.3101 78.25C85.3101 75.91 85.7301 73.75 86.5701 71.77C87.4401 69.79 88.6551 68.065 90.2151 66.595C91.7751 65.125 93.6051 63.985 95.7051 63.175C97.8051 62.365 100.085 61.96 102.545 61.96C105.035 61.96 107.315 62.365 109.385 63.175C111.485 63.985 113.3 65.125 114.83 66.595C116.39 68.065 117.605 69.79 118.475 71.77C119.345 73.72 119.78 75.88 119.78 78.25C119.78 80.59 119.345 82.765 118.475 84.775C117.605 86.755 116.39 88.48 114.83 89.95C113.3 91.39 111.485 92.515 109.385 93.325C107.315 94.135 105.05 94.54 102.59 94.54ZM102.545 88.33C103.955 88.33 105.245 88.09 106.415 87.61C107.615 87.13 108.665 86.44 109.565 85.54C110.465 84.64 111.155 83.575 111.635 82.345C112.145 81.115 112.4 79.75 112.4 78.25C112.4 76.75 112.145 75.385 111.635 74.155C111.155 72.925 110.465 71.86 109.565 70.96C108.695 70.06 107.66 69.37 106.46 68.89C105.26 68.41 103.955 68.17 102.545 68.17C101.135 68.17 99.8301 68.41 98.6301 68.89C97.4601 69.37 96.4251 70.06 95.5251 70.96C94.6251 71.86 93.9201 72.925 93.4101 74.155C92.9301 75.385 92.6901 76.75 92.6901 78.25C92.6901 79.72 92.9301 81.085 93.4101 82.345C93.9201 83.575 94.6101 84.64 95.4801 85.54C96.3801 86.44 97.4301 87.13 98.6301 87.61C99.8301 88.09 101.135 88.33 102.545 88.33Z" stroke="#2A335C" stroke-width="4" mask="url(#path-1-outside-1_251_1107)"/>
<path d="M124.832 94.495C124.292 94.495 123.722 94.45 123.122 94.36C122.552 94.27 121.922 94.15 121.232 94L121.682 87.835C122.102 87.955 122.537 88.015 122.987 88.015C124.217 88.015 125.177 87.52 125.867 86.53C126.557 85.51 127.052 84.055 127.352 82.165C127.652 80.275 127.847 77.98 127.937 75.28L128.387 62.5H152.597V94H145.397V66.775L147.062 68.44H133.157L134.642 66.685L134.372 75.01C134.282 78.1 134.072 80.845 133.742 83.245C133.412 85.645 132.902 87.685 132.212 89.365C131.522 91.045 130.577 92.32 129.377 93.19C128.177 94.06 126.662 94.495 124.832 94.495Z" stroke="#2A335C" stroke-width="4" mask="url(#path-1-outside-1_251_1107)"/>
<path d="M161.544 88.06C163.284 88.57 164.739 88.72 165.909 88.51C167.109 88.27 168.174 87.43 169.104 85.99L170.634 83.695L171.309 82.93L181.749 62.5H188.904L175.494 87.43C174.294 89.68 172.869 91.405 171.219 92.605C169.599 93.805 167.814 94.48 165.864 94.63C163.914 94.81 161.889 94.465 159.789 93.595L161.544 88.06ZM171.174 89.005L156.954 62.5H164.739L175.179 83.65L171.174 89.005Z" stroke="#2A335C" stroke-width="4" mask="url(#path-1-outside-1_251_1107)"/>
<path d="M192.369 94V62.5H217.794V68.305H199.614V74.785H208.344C212.154 74.785 215.049 75.58 217.029 77.17C219.039 78.76 220.044 81.07 220.044 84.1C220.044 87.22 218.934 89.65 216.714 91.39C214.494 93.13 211.359 94 207.309 94H192.369ZM199.614 88.6H206.904C208.764 88.6 210.189 88.24 211.179 87.52C212.169 86.77 212.664 85.69 212.664 84.28C212.664 81.52 210.744 80.14 206.904 80.14H199.614V88.6Z" stroke="#2A335C" stroke-width="4" mask="url(#path-1-outside-1_251_1107)"/>
<path d="M242.36 94V84.055L244.16 85.63H235.52C232.79 85.63 230.435 85.18 228.455 84.28C226.475 83.38 224.96 82.075 223.91 80.365C222.86 78.655 222.335 76.615 222.335 74.245C222.335 71.785 222.89 69.685 224 67.945C225.14 66.175 226.73 64.825 228.77 63.895C230.81 62.965 233.21 62.5 235.97 62.5H249.56V94H242.36ZM222.425 94L230.255 82.705H237.635L230.12 94H222.425ZM242.36 81.715V66.55L244.16 68.44H236.15C234.08 68.44 232.49 68.92 231.38 69.88C230.3 70.84 229.76 72.265 229.76 74.155C229.76 75.985 230.285 77.395 231.335 78.385C232.385 79.375 233.93 79.87 235.97 79.87H244.16L242.36 81.715Z" stroke="#2A335C" stroke-width="4" mask="url(#path-1-outside-1_251_1107)"/>
<path d="M257.452 94V62.5H263.482L276.892 84.73H273.697L286.882 62.5H292.912L292.957 94H286.117L286.072 72.985H287.377L276.802 90.67H273.562L262.762 72.985H264.292V94H257.452Z" stroke="#2A335C" stroke-width="4" mask="url(#path-1-outside-1_251_1107)"/>
</g>
<defs>
<filter id="filter0_d_251_1107" x="0.278259" y="0.5" width="356.43" height="131.176" filterUnits="userSpaceOnUse" color-interpolation-filters="sRGB">
<feFlood flood-opacity="0" result="BackgroundImageFix"/>
<feColorMatrix in="SourceAlpha" type="matrix" values="0 0 0 0 0 0 0 0 0 0 0 0 0 0 0 0 0 0 127 0" result="hardAlpha"/>
<feOffset dy="15"/>
<feGaussianBlur stdDeviation="10"/>
<feColorMatrix type="matrix" values="0 0 0 0 0 0 0 0 0 0 0 0 0 0 0 0 0 0 0.05 0"/>
<feBlend mode="normal" in2="BackgroundImageFix" result="effect1_dropShadow_251_1107"/>
<feBlend mode="normal" in="SourceGraphic" in2="effect1_dropShadow_251_1107" result="shape"/>
</filter>
</defs>
</svg>
